<?xml version="1.0" encoding="UTF-8" standalone="no"?>
<!-- Created with Inkscape (http://www.inkscape.org/) -->

<svg
   xmlns:dc="http://purl.org/dc/elements/1.1/"
   xmlns:cc="http://creativecommons.org/ns#"
   xmlns:rdf="http://www.w3.org/1999/02/22-rdf-syntax-ns#"
   xmlns:svg="http://www.w3.org/2000/svg"
   xmlns="http://www.w3.org/2000/svg"
   xmlns:sodipodi="http://sodipodi.sourceforge.net/DTD/sodipodi-0.dtd"
   xmlns:inkscape="http://www.inkscape.org/namespaces/inkscape"
   width="100mm"
   height="100mm"
   viewBox="0 0 354.33071 354.33071"
   id="svg2"
   version="1.1"
   inkscape:version="0.91 r13725"
   sodipodi:docname="etf.svg">
  <defs
     id="defs4" />
  <sodipodi:namedview
     id="base"
     pagecolor="#ffffff"
     bordercolor="#666666"
     borderopacity="1.0"
     inkscape:pageopacity="0.0"
     inkscape:pageshadow="2"
     inkscape:zoom="0.98994949"
     inkscape:cx="135.82881"
     inkscape:cy="250.68441"
     inkscape:document-units="px"
     inkscape:current-layer="layer1"
     showgrid="false"
     inkscape:window-width="1600"
     inkscape:window-height="838"
     inkscape:window-x="-8"
     inkscape:window-y="-8"
     inkscape:window-maximized="1" />
  <metadata
     id="metadata7">
    <rdf:RDF>
      <cc:Work
         rdf:about="">
        <dc:format>image/svg+xml</dc:format>
        <dc:type
           rdf:resource="http://purl.org/dc/dcmitype/StillImage" />
        <dc:title></dc:title>
      </cc:Work>
    </rdf:RDF>
  </metadata>
  <g
     inkscape:label="Ebene 1"
     inkscape:groupmode="layer"
     id="layer1"
     transform="translate(0,-698.0315)">
    <path
       style="fill:#ddeed8;fill-opacity:1"
       d="m 176.82515,1046.3818 c -0.39939,-0.5023 -5.75875,-9.1332 -11.90969,-19.1796 -6.15096,-10.0465 -15.89268,-25.9259 -21.64827,-35.28738 -5.75558,-9.36159 -10.4647,-17.14571 -10.4647,-17.29806 0,-0.15236 1.72617,-0.78309 3.83592,-1.4016 2.99817,-0.879 4.01119,-0.9309 4.63833,-0.23763 0.44131,0.48783 3.77103,5.65449 7.39935,11.48145 5.49375,8.82275 19.22362,30.63742 27.52625,43.73512 1.86229,2.9378 2.08875,3.0791 2.93021,1.8266 0.50156,-0.7465 5.75548,-9.1578 11.67537,-18.6918 l 10.76345,-17.3345 3.22415,1.62551 c 1.7733,0.89407 3.23318,1.89193 3.24423,2.21754 0.011,0.3256 -4.69319,8.21655 -10.45385,17.53565 -5.76063,9.3189 -12.53283,20.3138 -15.04932,24.4328 -2.51648,4.1191 -4.66764,7.4892 -4.78037,7.4892 -0.1127,0 -0.53168,-0.4109 -0.93106,-0.9133 z M 64.319814,988.87125 c -1.054684,-0.98257 -1.405737,-1.95855 -1.116955,-3.10528 0.719641,-2.8576 4.660816,-9.34418 5.677428,-9.34418 3.201976,0 4.151938,2.07097 2.158734,4.70623 -2.037834,2.69425 -1.364441,3.13658 5.320484,3.49483 6.669058,0.3574 10.411808,1.54061 10.411808,3.29157 0,0.83985 -1.05342,0.93702 -5.73278,0.52884 -4.319427,-0.37679 -6.733924,-0.20905 -9.793608,0.68043 -5.081095,1.47711 -5.068163,1.47759 -6.925111,-0.25244 z m 15.432109,-15.0665 c 0.24393,-0.63567 0.44351,-1.74056 0.44351,-2.45533 0,-0.71478 0.85166,-2.55459 1.89258,-4.08847 1.04093,-1.53389 5.02543,-8.73104 8.85446,-15.99368 3.82903,-7.26264 8.92968,-16.58142 11.334777,-20.7084 3.34422,-5.73847 4.2659,-7.9299 3.91806,-9.31584 -0.63601,-2.53401 -4.56497,-2.47926 -8.490177,0.11832 -2.82142,1.86712 -2.96491,1.88742 -4.36824,0.61741 -0.79806,-0.72223 -1.45037,-1.50876 -1.4496,-1.74789 7.2e-4,-0.2391 1.63579,-1.54867 3.63336,-2.91012 3.02394,-2.06101 4.32451,-2.48541 7.768977,-2.5352 3.84699,-0.0557 4.28318,0.11526 6.22139,2.43692 1.14639,1.37319 2.43072,3.54616 2.85402,4.82884 0.73114,2.21535 0.32486,3.07664 -8.11495,17.20239 -9.527167,15.9457 -22.902767,35.70678 -24.168727,35.70678 -0.42511,0 -0.57336,-0.52007 -0.32944,-1.15573 z m 110.921037,-5.55187 c 2.12569,-3.20146 14.35215,-5.09672 16.09703,-2.49525 1.71759,2.56083 -2.18799,4.08828 -10.45346,4.08828 l -6.70129,0 1.05772,-1.59303 z m 70.72457,-0.55154 c -5.74656,-1.75435 -11.52354,-6.29226 -10.70983,-8.41274 0.66641,-1.73665 4.00594,-1.36538 9.00923,1.00157 4.73397,2.23956 6.47071,4.26531 5.71045,6.66072 -0.48369,1.52396 -1.09898,1.63911 -4.00985,0.75045 z m -53.47337,-4.92591 c -3.02532,-0.79855 -2.28239,-16.90868 1.20734,-26.18002 3.29291,-8.74848 7.61803,-16.52289 12.12009,-21.78586 2.46654,-2.88341 5.15709,-6.60091 5.97902,-8.2611 l 1.4944,-3.01854 -1.63749,-6.11464 c -1.56952,-5.8608 -5.95754,-15.34204 -8.62704,-18.6406 -2.2677,-2.80204 -3.9043,-2.69673 -8.19516,0.52737 -4.65444,3.49726 -8.81243,5.99723 -12.61732,7.58611 l -2.73996,1.14415 0,-2.47844 c 0,-2.08597 0.36088,-2.62793 2.27887,-3.42239 1.25338,-0.51917 4.13033,-2.52728 6.39322,-4.46247 2.26289,-1.93518 5.96875,-4.50944 8.23523,-5.72059 8.81753,-4.71179 12.36164,-2.33542 17.49519,11.73082 2.10548,5.76913 5.03124,18.28571 5.04593,21.58686 0.003,0.84938 -0.74649,2.32895 -1.66728,3.28794 -4.29513,4.4733 -8.70701,10.27538 -11.82094,15.54574 -5.92324,10.02521 -10.29495,29.76969 -8.22795,37.16095 0.51856,1.85425 0.40579,2.00277 -1.4613,1.92454 -1.11277,-0.0466 -2.57745,-0.23103 -3.25485,-0.40983 z m 56.62699,-3.34134 c -1.23618,-1.30604 -2.65326,-3.19661 -3.14904,-4.20125 -0.49577,-1.00465 -2.00031,-3.47062 -3.34341,-5.4799 -5.34742,-7.9999 -7.23656,-24.02693 -4.47841,-37.994 0.71422,-3.61674 1.49457,-9.69942 1.73414,-13.5171 l 0.43554,-6.9412 -3.73038,-7.43266 c -2.05172,-4.08796 -4.07278,-7.64427 -4.49124,-7.90291 -0.41848,-0.25861 -1.84759,-2.17461 -3.17581,-4.25779 -3.66262,-5.74439 -5.23379,-19.39566 -3.36593,-29.24493 0.85018,-4.48292 7.22696,-17.87753 8.72048,-18.31753 0.60277,-0.17758 2.52812,-0.54609 4.27852,-0.81888 l 3.18257,-0.49598 -0.51836,3.06817 c -0.28512,1.68749 -1.76641,5.27057 -3.29178,7.96242 -3.78205,6.67425 -5.11226,11.5944 -5.11226,18.909 0,5.11491 0.36494,7.05032 2.18795,11.60304 1.20337,3.00526 3.19655,6.9301 4.42929,8.72183 6.30866,9.1693 9.09141,19.26716 7.96855,28.91571 -0.39017,3.35254 -1.05177,9.10897 -1.47025,12.79203 -0.41846,3.68308 -1.0747,7.79083 -1.4583,9.12836 -1.6486,5.74834 -0.0969,11.86185 5.00034,19.70208 3.03342,4.66569 7.45398,14.97154 7.45398,17.37779 0,0.43907 -1.25067,0.79832 -2.77928,0.79832 -2.18745,0 -3.25791,-0.50565 -5.02691,-2.37462 z M 115.01029,949.38367 c -1.0645,-1.26507 -1.93545,-2.61682 -1.93545,-3.00385 0,-0.52935 2.59286,-6.19051 3.19659,-6.97932 0.0519,-0.0678 0.97084,-0.34325 2.04211,-0.61212 1.54486,-0.38774 2.12428,-0.15904 2.80105,1.10552 0.7141,1.33429 0.6047,1.85901 -0.67062,3.21651 -2.66362,2.8353 -2.00276,3.35458 4.26914,3.35458 4.29219,0 6.0905,0.29746 6.94121,1.14817 2.40048,2.40048 1.4654,2.77067 -9.15483,3.62429 -5.55176,0.44624 -5.55441,0.44558 -7.4892,-1.85378 z m 10.45864,-13.65692 c 0.28691,-1.52838 2.05773,-7.02237 3.93519,-12.20887 1.87745,-5.18652 3.28644,-9.55713 3.13109,-9.71248 -0.15535,-0.15535 -1.45037,0.27448 -2.87781,0.95519 -2.20669,1.05228 -2.93147,1.09842 -4.8397,0.308 -3.511,-1.4543 -2.72908,-2.81545 3.18765,-5.54915 6.01604,-2.77959 9.43736,-3.12353 11.93656,-1.19999 1.58853,1.22263 1.61612,1.41728 0.64462,4.55034 -0.5582,1.80019 -3.65911,8.20499 -6.89091,14.23288 -4.16852,7.77503 -6.29334,11.02417 -7.31217,11.18136 -1.28815,0.19873 -1.38241,-0.0648 -0.91452,-2.55728 z M 95.454443,909.38432 c -2.60947,-6.72905 4.919627,-24.27969 15.063107,-35.11269 7.81274,-8.34383 16.33384,-11.6905 20.82363,-8.17854 l 1.82663,1.42882 -2.93392,0.0162 c -1.61819,0.008 -4.30936,0.75351 -6.00101,1.66023 -3.80072,2.03719 -12.87364,12.07897 -15.34867,16.98769 -1.0131,2.00931 -2.40718,4.47526 -3.09795,5.4799 -1.61357,2.34683 -5.863197,14.18401 -5.863197,16.3318 0,3.54174 -3.24267,4.54794 -4.46862,1.38659 z m 56.345037,0.83686 c 0,-0.0822 1.76943,-1.14797 3.93207,-2.3685 4.72342,-2.66574 7.24354,-5.58791 6.59131,-7.6429 -0.41928,-1.32103 -0.21316,-1.41533 2.22801,-1.01918 2.53521,0.41141 3.38655,-0.0659 14.79099,-8.29329 6.65551,-4.80141 12.38743,-8.72984 12.73759,-8.72984 0.35016,0 0.63048,0.57538 0.62297,1.27864 -0.0161,1.49925 -5.51935,6.18773 -15.61324,13.30151 -3.97342,2.80031 -7.78193,6.00827 -8.46337,7.12881 -0.68143,1.12052 -2.42187,3.07593 -3.86764,4.34533 -2.44698,2.14846 -2.98568,2.3025 -7.79368,2.2284 -2.84075,-0.0438 -5.16501,-0.14681 -5.16501,-0.22898 z m -32.00437,-1.21088 c -0.80982,-0.97577 -1.17656,-3.35138 -0.98868,-6.40437 0.25802,-4.1926 7.40411,-8.91611 7.43136,-4.91207 0.0169,2.48441 1.09747,3.73326 2.83665,3.27846 2.21362,-0.57889 1.89966,0.63107 -1.06138,4.09039 -3.80475,4.44499 -6.6649,5.81891 -8.21795,3.94759 z m 32.00437,-5.64649 c -1.00465,-0.33434 -5.16207,-1.629 -9.23872,-2.877 -7.21492,-2.20875 -7.53656,-2.40106 -12.0909,-7.2289 -9.66311,-10.2434 -11.14739,-19.61847 -3.60093,-22.74431 5.29712,-2.19415 8.22247,1.39119 3.43826,4.21394 -3.42913,2.02324 -3.97393,4.42242 -1.80878,7.96534 6.40133,10.47472 8.89596,12.31292 21.0304,15.49652 9.01521,2.36524 10.82468,3.29859 9.49675,4.89864 -0.90944,1.0958 -4.36566,1.2277 -7.22608,0.27577 z m -12.15255,-10.59059 c -0.52877,-1.37791 1.10517,-3.95429 6.98632,-11.0161 l 4.69759,-5.64065 -0.9147,-8.33888 c -0.9663,-8.80926 -2.21654,-27.36744 -2.25003,-33.39852 -0.0196,-3.53796 -0.002,-3.56691 1.44141,-2.26138 0.86775,0.7853 1.45749,2.24101 1.45195,3.58385 -0.005,1.24375 0.46712,4.56293 1.04952,7.37596 1.95376,9.43691 2.55749,15.35841 2.11003,20.69572 -0.42232,5.03726 -0.3473,5.40288 1.505,7.33627 2.4968,2.60611 3.61352,6.32168 2.52803,8.41136 -1.89767,3.65313 -5.37319,5.36234 -5.85168,2.87774 -0.16008,-0.83129 -1.86725,0.82712 -5.26492,5.11458 -4.92841,6.21912 -6.65509,7.43196 -7.48852,5.26005 z M 78.509713,886.02723 C 78.322663,885.71273 72.17864,874.4408 64.856378,860.97853 57.534102,847.51622 49.982257,833.70687 48.0745,830.29107 40.820873,817.30353 29.049671,795.4579 29.049671,794.98377 c 0,-0.27212 65.430032,-0.49474 145.400079,-0.49474 79.97004,0 145.40008,0.14396 145.40008,0.31988 0,0.27138 -14.91077,26.64363 -38.85793,68.72689 -3.20145,5.62603 -6.04642,10.4628 -6.32215,10.74839 -0.48017,0.49733 -8.15764,-1.40732 -8.15764,-2.02378 0,-0.28907 3.71335,-6.37635 19.3621,-31.7402 15.329,-24.84558 22.28517,-36.4625 22.28517,-37.21664 0,-0.5465 -39.27397,-0.77735 -132.24833,-0.77735 -81.572207,0 -132.248302,0.26184 -132.248302,0.68334 0,0.37581 9.550378,18.1858 21.223089,39.57772 17.038856,31.22616 21.036316,39.06412 20.275626,39.75528 -1.89845,1.72498 -6.32051,4.0416 -6.65175,3.48467 z m 101.188617,-4.19094 -2.79281,-2.52313 -2.05881,1.97514 c -1.53363,1.4713 -1.93965,1.63268 -1.59164,0.63263 0.88115,-2.5321 1.38143,-7.06 0.78005,-7.06 -0.33075,0 -1.52357,0.8835 -2.65067,1.96333 -1.88193,1.80301 -2.04927,1.84401 -2.04927,0.50203 0,-2.66784 6.37346,-7.57993 9.835,-7.57993 1.80127,0 3.27157,-1.10284 8.05729,-6.04358 8.17529,-8.44011 20.83234,-16.79235 20.83234,-13.74705 0,0.30026 -1.46121,1.59527 -3.24713,2.87783 -5.29893,3.80539 -10.05774,8.11815 -16.52369,14.97483 -5.50867,5.84154 -5.9639,6.53855 -4.72381,7.23254 0.7548,0.42241 2.50099,1.80232 3.88044,3.0665 l 2.5081,2.2985 -2.98708,1.97676 c -1.64288,1.0872 -3.32197,1.97674 -3.73128,1.97674 -0.40932,0 -2.00098,-1.13541 -3.53703,-2.52314 z m 38.50827,-19.98648 -2.47492,-2.20996 -0.2491,-7.7306 c -0.21959,-6.81502 -0.0556,-8.13012 1.38393,-11.10399 2.02491,-4.18289 5.70101,-6.09071 11.78124,-6.11423 3.62102,-0.0141 4.3407,0.22863 5.66256,1.90911 1.05493,1.34111 1.51436,2.99054 1.51436,5.43679 0,4.1606 -0.98933,5.14936 -2.33478,2.33347 -1.62866,-3.40865 -3.90819,-3.0533 -7.93629,1.23716 -4.32001,4.6014 -5.52781,7.75939 -4.34192,11.35269 1.06361,3.22273 3.48409,3.96496 7.83177,2.40155 4.34333,-1.56186 4.26699,0.2043 -0.10018,2.31841 -5.53271,2.67835 -7.88546,2.71551 -10.73664,0.1696 z m -87.21752,0.32471 c -1.15264,-0.84284 -3.62574,-6.96022 -3.04755,-7.53839 0.10454,-0.10456 1.3896,0.66337 2.85568,1.70651 1.46607,1.04312 3.12282,1.72113 3.68165,1.50669 2.77808,-1.06605 4.24187,-9.51379 2.80377,-16.18091 -0.67991,-3.15209 -3.58947,-3.72632 -6.90996,-1.36375 -2.61724,1.86219 -5.60738,1.82398 -5.60738,-0.0717 0,-1.44312 3.17712,-4.06216 5.86175,-4.8321 8.07149,-2.31488 13.85049,3.7129 13.86183,14.45861 0.005,5.34703 -1.4508,8.34971 -5.3519,11.03374 -3.58195,2.46444 -6.00805,2.84594 -8.14789,1.28126 z M 247.633,819.30899 c 2.62453,-1.53184 34.21733,-11.55558 40.0836,-12.71769 6.27326,-1.24272 10.21362,-0.83597 10.21362,1.05433 0,0.96885 0.5901,0.8047 -14.54724,4.04676 -6.99634,1.49844 -14.72302,3.52082 -17.17037,4.49416 -6.49281,2.58224 -22.16733,5.21646 -18.57961,3.12244 z m 2.07409,-3.76722 c 0,-2.31849 1.93309,-3.73903 5.18622,-3.81112 4.45403,-0.0986 4.47879,1.86473 0.0331,2.62368 -1.75076,0.29887 -3.64132,0.92361 -4.20125,1.38832 -0.78968,0.65536 -1.01808,0.6103 -1.01808,-0.20088 z m -147.59206,-74.75578 0,-36.16736 23.38092,0 23.38092,0 0,7.67186 0,7.67186 -14.61308,0 -14.61307,0 0,5.84524 0,5.84522 13.51709,0 13.51709,0 0,7.30654 0,7.30653 -13.51709,0 -13.51709,0 0,7.30654 0,7.30654 14.9784,0 14.9784,0 0,8.03719 0,8.03719 -23.74624,0 -23.74625,0 0,-36.16735 z m 70.87479,8.97369 0.002,-27.24004 -8.76923,0.22564 -8.76922,0.22562 0,-9.17613 0,-9.17614 26.32603,0 26.32601,0 -0.20515,8.95051 -0.20516,8.9505 -8.4025,0 -8.40252,0 -0.36534,27.03419 -0.36532,27.03419 -8.58518,0.20585 -8.58518,0.20584 0.002,-27.24003 z m 43.10719,-8.97369 0,-36.16736 21.55428,0 21.55429,0 0,7.67186 0,7.67186 -12.78645,0 -12.78643,0 0,6.57589 0,6.57588 10.98626,0 10.98626,0 -0.20913,7.07471 -0.20912,7.07471 -9.3103,-0.18449 c -5.12066,-0.10143 -9.97038,0.025 -10.77714,0.28106 -1.40404,0.44564 -1.46683,1.08899 -1.46683,15.02939 l 0,14.56384 -8.76785,0 -8.76784,0 0,-36.16735 z"
       id="path4147"
       inkscape:connector-curvature="0" />
  </g>
</svg>
