<?xml version="1.0" encoding="UTF-8" standalone="no"?>
<!-- Created with Inkscape (http://www.inkscape.org/) -->

<svg
   xmlns:dc="http://purl.org/dc/elements/1.1/"
   xmlns:cc="http://creativecommons.org/ns#"
   xmlns:rdf="http://www.w3.org/1999/02/22-rdf-syntax-ns#"
   xmlns:svg="http://www.w3.org/2000/svg"
   xmlns="http://www.w3.org/2000/svg"
   xmlns:sodipodi="http://sodipodi.sourceforge.net/DTD/sodipodi-0.dtd"
   xmlns:inkscape="http://www.inkscape.org/namespaces/inkscape"
   width="50mm"
   height="50mm"
   viewBox="0 0 177.16535 177.16535"
   id="svg4406"
   version="1.1"
   inkscape:version="0.91 r13725"
   sodipodi:docname="home.svg"
   inkscape:export-filename="C:\Users\pidi\Desktop\WebPageTagger2.0\WebPageTagger2.0\icon\home2.png"
   inkscape:export-xdpi="51.491379"
   inkscape:export-ydpi="51.491379">
  <defs
     id="defs4408" />
  <sodipodi:namedview
     id="base"
     pagecolor="#ffffff"
     bordercolor="#666666"
     borderopacity="1.0"
     inkscape:pageopacity="0.0"
     inkscape:pageshadow="2"
     inkscape:zoom="2.8"
     inkscape:cx="32.015875"
     inkscape:cy="87.759054"
     inkscape:document-units="px"
     inkscape:current-layer="layer1"
     showgrid="false"
     inkscape:window-width="1600"
     inkscape:window-height="838"
     inkscape:window-x="-8"
     inkscape:window-y="-8"
     inkscape:window-maximized="1" />
  <metadata
     id="metadata4411">
    <rdf:RDF>
      <cc:Work
         rdf:about="">
        <dc:format>image/svg+xml</dc:format>
        <dc:type
           rdf:resource="http://purl.org/dc/dcmitype/StillImage" />
        <dc:title />
      </cc:Work>
    </rdf:RDF>
  </metadata>
  <g
     inkscape:label="Ebene 1"
     inkscape:groupmode="layer"
     id="layer1"
     transform="translate(0,-875.19688)">
    <g
       id="g4139"
       transform="translate(-1.4494605,-1.4285713)"
       style="stroke-width:1.99999976;stroke-miterlimit:4;stroke-dasharray:none">
      <path
         d="m 20.376744,1015.8943 2.157569,2.8738 2.517167,3.2331 2.876759,2.8737 2.876761,2.8738 2.87676,2.5146 3.236356,2.8737 3.59595,2.5146 3.236357,2.1555 3.955545,2.5144 3.595952,1.7962 3.955521,1.796 4.31514,1.7961 3.955545,1.437 4.315141,1.4369 4.315139,1.0777 4.674735,0.7184 4.315144,0.3591 4.315142,0.3593 4.674738,0.3593 4.315134,0 4.315147,-0.3593 4.315144,-0.7184 4.31513,-0.7184 4.31514,-1.0777 3.95554,-1.0777 4.31514,-1.437 3.59595,-1.4368 3.95555,-1.7961 3.59594,-1.7963 3.23637,-1.7959 3.59595,-2.1554 3.23634,-2.1554 2.87677,-2.1552 2.87676,-2.5146 3.23634,-2.8738 2.87677,-2.8738 2.51716,-2.8738 2.87676,-3.233 2.51717,-3.5923 2.15758,-3.5922 2.15756,-3.5922 2.15757,-3.9515 1.79797,-3.95151 1.79799,-3.9513 1.43837,-4.31066 1.43838,-3.95149 0.71917,-4.31066 1.07879,-4.67002 0.35958,-4.31063 0.3596,-4.31073 0.3596,-4.66982 -0.3596,-4.31064 0,-4.31074 -0.71918,-4.31065 -0.7192,-4.31073 -1.07876,-4.31064 -1.07878,-4.31074 -1.43838,-3.9514 -1.43838,-3.59223 -1.79798,-3.9515 -1.79797,-3.59232 -1.79799,-3.59215 -2.15756,-3.23308 -2.15757,-3.23298 -2.51716,-2.87382 -2.51716,-3.23299 -2.51718,-2.87374 -2.87676,-2.87381 -2.87675,-2.51458 -3.23636,-2.87382 -3.59595,-2.51458 -3.59595,-2.15533 -3.59595,-2.15523 -3.95554,-2.15541 -3.95554,-1.79607 -3.95555,-1.79617 -4.31514,-1.43691 -4.31514,-1.43682 -4.31514,-1.07766 -4.31514,-0.7185 -4.315131,-0.35926 -4.674746,-0.35925 -4.315135,-0.35915 -4.315142,0 -4.674736,0.35915 -4.315144,0.71851 -4.315139,0.7185 -3.955544,1.07766 -4.315141,1.07756 -3.955546,1.43692 -3.955544,1.43692 -3.595927,1.79616 -3.595951,1.79607 -3.595952,1.79616 -3.236355,2.15533 -3.236356,2.15532 -2.876759,2.15532 -3.236356,2.51458 -2.876761,2.87382 -2.87676,2.87374 -2.517165,2.87372 -2.876761,3.23308 -2.517166,3.59223 -2.15757,3.59225 -2.517165,3.59223 -1.797976,3.9515 -2.15757,3.95147 -1.4383804,3.9514 -1.4383799,4.31074 -1.4383803,3.95149 -1.0787853,4.6699 -0.7191901,4.31065 -0.71919,4.31074 -0.3595952,4.31064 0,8.9805 0.3595952,4.31083 0.71919,4.66982 0.7191901,3.9515 1.0787853,4.31076 1.0787851,4.31066 1.4383803,3.9513 1.4383802,3.59233 1.43838,3.95146 2.157571,3.5922 1.797975,3.5923 2.157569,3.2329 2.157572,3.233"
         style="fill:none;stroke:#22222f;stroke-width:1.99999976;stroke-linecap:round;stroke-linejoin:round;stroke-miterlimit:4;stroke-dasharray:none;stroke-opacity:0.94117647"
         id="path6279-7"
         inkscape:connector-curvature="0" />
      <path
         d="M 43.750423,947.64196 90.138165,900.94279"
         style="fill:none;stroke:#22222f;stroke-width:1.99999976;stroke-linecap:round;stroke-linejoin:round;stroke-miterlimit:4;stroke-dasharray:none;stroke-opacity:0.94117647"
         id="path6283-3"
         inkscape:connector-curvature="0" />
      <path
         d="M 136.88551,947.64196 90.138165,900.94279"
         style="fill:none;stroke:#22222f;stroke-width:1.99999976;stroke-linecap:round;stroke-linejoin:round;stroke-miterlimit:4;stroke-dasharray:none;stroke-opacity:0.94117647"
         id="path6285-3"
         inkscape:connector-curvature="0" />
      <path
         d="m 43.750423,1013.7391 92.775487,0"
         style="fill:none;stroke:#22222f;stroke-width:1.99999976;stroke-linecap:round;stroke-linejoin:round;stroke-miterlimit:4;stroke-dasharray:none;stroke-opacity:0.94117647"
         id="path6287-5"
         inkscape:connector-curvature="0" />
      <path
         d="m 43.750423,1013.7391 0,-66.09714"
         style="fill:none;stroke:#22222f;stroke-width:1.99999976;stroke-linecap:round;stroke-linejoin:round;stroke-miterlimit:4;stroke-dasharray:none;stroke-opacity:0.94117647"
         id="path6289-2"
         inkscape:connector-curvature="0" />
      <path
         d="m 136.88551,1013.7391 0,-66.09714"
         style="fill:none;stroke:#22222f;stroke-width:1.99999976;stroke-linecap:round;stroke-linejoin:round;stroke-miterlimit:4;stroke-dasharray:none;stroke-opacity:0.94117647"
         id="path6291-3"
         inkscape:connector-curvature="0" />
    </g>
  </g>
</svg>
