<?xml version="1.0" encoding="UTF-8" standalone="no"?>
<!-- Created with Inkscape (http://www.inkscape.org/) -->

<svg
   xmlns:dc="http://purl.org/dc/elements/1.1/"
   xmlns:cc="http://creativecommons.org/ns#"
   xmlns:rdf="http://www.w3.org/1999/02/22-rdf-syntax-ns#"
   xmlns:svg="http://www.w3.org/2000/svg"
   xmlns="http://www.w3.org/2000/svg"
   xmlns:sodipodi="http://sodipodi.sourceforge.net/DTD/sodipodi-0.dtd"
   xmlns:inkscape="http://www.inkscape.org/namespaces/inkscape"
   width="50mm"
   height="50mm"
   viewBox="0 0 177.16535 177.16535"
   id="svg4406"
   version="1.1"
   inkscape:version="0.91 r13725"
   sodipodi:docname="kontakt.svg"
   inkscape:export-filename="C:\Users\pidi\Desktop\WebPageTagger2.0\WebPageTagger2.0\icon\kontakt2.png"
   inkscape:export-xdpi="51.421871"
   inkscape:export-ydpi="51.421871">
  <defs
     id="defs4408" />
  <sodipodi:namedview
     id="base"
     pagecolor="#ffffff"
     bordercolor="#666666"
     borderopacity="1.0"
     inkscape:pageopacity="0.0"
     inkscape:pageshadow="2"
     inkscape:zoom="1.979899"
     inkscape:cx="32.348818"
     inkscape:cy="95.27651"
     inkscape:document-units="px"
     inkscape:current-layer="layer1"
     showgrid="false"
     inkscape:window-width="1600"
     inkscape:window-height="838"
     inkscape:window-x="-32000"
     inkscape:window-y="-32000"
     inkscape:window-maximized="0" />
  <metadata
     id="metadata4411">
    <rdf:RDF>
      <cc:Work
         rdf:about="">
        <dc:format>image/svg+xml</dc:format>
        <dc:type
           rdf:resource="http://purl.org/dc/dcmitype/StillImage" />
        <dc:title />
      </cc:Work>
    </rdf:RDF>
  </metadata>
  <g
     inkscape:label="Ebene 1"
     inkscape:groupmode="layer"
     id="layer1"
     transform="translate(0,-875.19688)">
    <path
       inkscape:connector-curvature="0"
       id="path6121-1"
       style="fill:none;stroke:#333333;stroke-width:1.99999976;stroke-linecap:round;stroke-linejoin:round;stroke-miterlimit:10;stroke-dasharray:none;stroke-opacity:1"
       d="m 18.72614,1014.66 2.160524,2.8775 2.520613,2.8777 2.880698,3.2375 2.880699,2.8778 2.880699,2.518 3.240787,2.8776 3.600874,2.5181 3.240787,2.1583 3.960961,2.1583 3.600876,2.1582 3.960937,1.7986 4.321048,1.7986 3.960961,1.4389 4.321049,1.4388 4.321047,1.0791 4.681136,0.7196 4.321052,0.3596 4.32105,0.3597 4.681138,0.3597 4.321043,-0.3597 4.321052,0 4.321059,-0.7193 4.32104,-0.7196 4.32106,-1.0791 3.96095,-1.0792 4.32105,-1.4387 3.60087,-1.4389 3.96097,-1.7986 3.60086,-1.7986 3.2408,-1.7987 3.60088,-2.1582 3.24077,-2.1582 2.8807,-2.5181 2.8807,-2.5181 3.24078,-2.518 2.88071,-2.8776 2.5206,-2.8778 2.8807,-3.2375 2.52062,-3.5971 2.16053,-3.5971 2.16052,-3.5971 2.16052,-3.9569 1.80043,-3.95689 1.80045,-3.95681 1.44034,-4.31656 1.44035,-3.95681 0.72016,-4.67631 1.08026,-4.31666 0.36008,-4.31656 0.36009,-4.67632 0.36009,-4.31646 -0.36009,-4.31666 0,-4.31666 -0.72017,-4.67632 -0.72018,-3.95681 -1.08024,-4.31666 -1.08026,-4.31626 -1.44035,-3.95691 -1.44035,-3.95681 -1.80044,-3.59725 -1.80043,-3.59715 -1.80045,-3.59715 -2.16051,-3.2373 -2.16053,-3.23759 -2.52061,-2.87774 -2.52061,-3.2373 -2.52061,-2.87784 -2.88071,-2.87764 -2.88069,-2.51799 -3.24079,-2.87774 -3.60087,-2.51798 -3.60087,-2.15824 -3.60088,-2.51808 -3.96096,-1.79848 -3.96095,-1.79877 -3.96097,-1.79848 -4.32105,-1.43892 -4.32104,-1.43882 -4.32105,-1.07906 -4.32105,-0.71951 -4.32105,-0.71941 -4.681145,-0.35976 -8.642094,0 -4.681136,0.35976 -4.321052,0.71941 -4.321047,0.71951 -3.960959,1.07906 -4.32105,1.07927 -3.960962,1.43872 -3.96096,1.43892 -3.600851,1.43882 -3.600874,2.15823 -3.600875,1.79858 -3.240787,2.15842 -3.240786,2.15824 -2.880698,2.15843 -3.240788,2.51788 -2.880699,2.87774 -2.880699,2.87765 -2.520611,2.87774 -2.8807,3.23749 -2.520612,3.59715 -2.160524,3.59706 -2.520612,3.59725 -1.800437,3.59715 -2.1605228,3.9569 -1.4403499,4.31647 -1.4403494,3.9569 -1.4403496,4.31646 -1.0802624,4.31647 -0.7201748,4.67631 -0.7201748,4.31657 -0.3600875,4.31666 0,8.99278 0.3600875,4.31656 0.7201748,4.31666 0.7201748,4.31646 1.0802624,4.31666 1.0802621,3.95701 1.4403497,4.31646 1.4403494,3.59715 1.4403495,3.95691 2.160523,3.5971 1.800437,3.5972 2.160523,3.2375 2.160526,3.2375" />
    <path
       inkscape:connector-curvature="0"
       id="path6123-4"
       style="fill:none;stroke:#333333;stroke-width:1.99999976;stroke-linecap:round;stroke-linejoin:round;stroke-miterlimit:10;stroke-dasharray:none;stroke-opacity:1"
       d="m 35.650247,923.65214 52.932829,49.64041" />
    <path
       inkscape:connector-curvature="0"
       id="path6127-7"
       style="fill:none;stroke:#333333;stroke-width:1.99999976;stroke-linecap:round;stroke-linejoin:round;stroke-miterlimit:10;stroke-dasharray:none;stroke-opacity:1"
       d="m 77.780453,971.85373 10.802623,10.07204" />
    <path
       inkscape:connector-curvature="0"
       id="path6129-3"
       style="fill:none;stroke:#333333;stroke-width:1.99999976;stroke-linecap:round;stroke-linejoin:round;stroke-miterlimit:10;stroke-dasharray:none;stroke-opacity:1"
       d="M 36.73051,998.83237 77.780453,971.85373" />
    <path
       inkscape:connector-curvature="0"
       id="path6131-0"
       style="fill:none;stroke:#333333;stroke-width:1.99999976;stroke-linecap:round;stroke-linejoin:round;stroke-miterlimit:10;stroke-dasharray:none;stroke-opacity:1"
       d="M 30.969113,994.87556 73.099311,967.53707" />
    <path
       inkscape:connector-curvature="0"
       id="path6133-7"
       style="fill:none;stroke:#333333;stroke-width:1.99999976;stroke-linecap:round;stroke-linejoin:round;stroke-miterlimit:10;stroke-dasharray:none;stroke-opacity:1"
       d="m 30.969113,927.9686 0,66.90696" />
    <path
       inkscape:connector-curvature="0"
       id="path6135-8"
       style="fill:none;stroke:#333333;stroke-width:1.99999976;stroke-linecap:round;stroke-linejoin:round;stroke-miterlimit:10;stroke-dasharray:none;stroke-opacity:1"
       d="m 30.969113,927.9686 42.130198,39.56847" />
    <path
       inkscape:connector-curvature="0"
       id="path6137-0"
       style="fill:none;stroke:#333333;stroke-width:1.99999976;stroke-linecap:round;stroke-linejoin:round;stroke-miterlimit:10;stroke-dasharray:none;stroke-opacity:1"
       d="m 88.583076,923.65214 -52.932829,0" />
    <path
       inkscape:connector-curvature="0"
       id="path6139-4"
       style="fill:none;stroke:#333333;stroke-width:1.99999976;stroke-linecap:round;stroke-linejoin:round;stroke-miterlimit:10;stroke-dasharray:none;stroke-opacity:1"
       d="m 88.583076,923.65214 53.292924,0" />
    <path
       inkscape:connector-curvature="0"
       id="path6141-2"
       style="fill:none;stroke:#333333;stroke-width:1.99999976;stroke-linecap:round;stroke-linejoin:round;stroke-miterlimit:10;stroke-dasharray:none;stroke-opacity:1"
       d="m 140.79574,998.83237 -52.212664,0" />
    <path
       inkscape:connector-curvature="0"
       id="path6143-6"
       style="fill:none;stroke:#333333;stroke-width:1.99999976;stroke-linecap:round;stroke-linejoin:round;stroke-miterlimit:10;stroke-dasharray:none;stroke-opacity:1"
       d="m 146.55714,927.9686 0,66.90696 -42.13021,-27.33849" />
    <path
       inkscape:connector-curvature="0"
       id="path6145-4"
       style="fill:none;stroke:#333333;stroke-width:1.99999976;stroke-linecap:round;stroke-linejoin:round;stroke-miterlimit:10;stroke-dasharray:none;stroke-opacity:1"
       d="M 140.79574,998.83237 99.385712,971.85373 88.583076,981.92577" />
    <path
       inkscape:connector-curvature="0"
       id="path6147-5"
       style="fill:none;stroke:#333333;stroke-width:1.99999976;stroke-linecap:round;stroke-linejoin:round;stroke-miterlimit:10;stroke-dasharray:none;stroke-opacity:1"
       d="m 146.55714,927.9686 -42.13021,39.56847" />
    <path
       inkscape:connector-curvature="0"
       id="path6149-6"
       style="fill:none;stroke:#333333;stroke-width:1.99999976;stroke-linecap:round;stroke-linejoin:round;stroke-miterlimit:10;stroke-dasharray:none;stroke-opacity:1"
       d="M 141.876,923.65214 88.583076,973.29255" />
    <path
       inkscape:connector-curvature="0"
       id="path6151-5"
       style="fill:none;stroke:#333333;stroke-width:1.99999976;stroke-linecap:round;stroke-linejoin:round;stroke-miterlimit:10;stroke-dasharray:none;stroke-opacity:1"
       d="m 36.73051,998.83237 51.852566,0" />
  </g>
</svg>
