<?xml version="1.0" encoding="UTF-8" standalone="no"?>
<!-- Created with Inkscape (http://www.inkscape.org/) -->

<svg
   xmlns:dc="http://purl.org/dc/elements/1.1/"
   xmlns:cc="http://creativecommons.org/ns#"
   xmlns:rdf="http://www.w3.org/1999/02/22-rdf-syntax-ns#"
   xmlns:svg="http://www.w3.org/2000/svg"
   xmlns="http://www.w3.org/2000/svg"
   xmlns:sodipodi="http://sodipodi.sourceforge.net/DTD/sodipodi-0.dtd"
   xmlns:inkscape="http://www.inkscape.org/namespaces/inkscape"
   width="50mm"
   height="50mm"
   viewBox="0 0 177.16535 177.16535"
   id="svg4406"
   version="1.1"
   inkscape:version="0.91 r13725"
   sodipodi:docname="Leistung.svg"
   inkscape:export-filename="C:\Users\pidi\Desktop\WebPageTagger2.0\WebPageTagger2.0\icon\leistung2.png"
   inkscape:export-xdpi="50.799999"
   inkscape:export-ydpi="50.799999">
  <defs
     id="defs4408" />
  <sodipodi:namedview
     id="base"
     pagecolor="#ffffff"
     bordercolor="#666666"
     borderopacity="1.0"
     inkscape:pageopacity="0.0"
     inkscape:pageshadow="2"
     inkscape:zoom="2.8"
     inkscape:cx="78.966294"
     inkscape:cy="84.661398"
     inkscape:document-units="px"
     inkscape:current-layer="layer1"
     showgrid="false"
     inkscape:window-width="1600"
     inkscape:window-height="838"
     inkscape:window-x="-8"
     inkscape:window-y="-8"
     inkscape:window-maximized="1" />
  <metadata
     id="metadata4411">
    <rdf:RDF>
      <cc:Work
         rdf:about="">
        <dc:format>image/svg+xml</dc:format>
        <dc:type
           rdf:resource="http://purl.org/dc/dcmitype/StillImage" />
        <dc:title />
      </cc:Work>
    </rdf:RDF>
  </metadata>
  <g
     inkscape:label="Ebene 1"
     inkscape:groupmode="layer"
     id="layer1"
     transform="translate(0,-875.19688)">
    <path
       inkscape:connector-curvature="0"
       id="path6153-6"
       style="fill:none;stroke:#333333;stroke-width:1.99999976;stroke-linecap:round;stroke-linejoin:round;stroke-miterlimit:10;stroke-dasharray:none;stroke-opacity:1"
       d="m 45.133006,977.01778 -5.738374,6.09079"
       inkscape:export-xdpi="101"
       inkscape:export-ydpi="101" />
    <path
       inkscape:connector-curvature="0"
       id="path6155-3"
       style="fill:none;stroke:#333333;stroke-width:1.99999976;stroke-linecap:round;stroke-linejoin:round;stroke-miterlimit:10;stroke-dasharray:none;stroke-opacity:1"
       d="m 45.133006,977.01778 6.09702,6.09079"
       inkscape:export-xdpi="101"
       inkscape:export-ydpi="101" />
    <path
       inkscape:connector-curvature="0"
       id="path6157-1"
       style="fill:none;stroke:#333333;stroke-width:1.99999976;stroke-linecap:round;stroke-linejoin:round;stroke-miterlimit:10;stroke-dasharray:none;stroke-opacity:1"
       d="m 39.394632,983.10857 11.835394,0"
       inkscape:export-xdpi="101"
       inkscape:export-ydpi="101" />
    <path
       inkscape:connector-curvature="0"
       id="path6159-4"
       style="fill:none;stroke:#333333;stroke-width:1.99999976;stroke-linecap:round;stroke-linejoin:round;stroke-miterlimit:10;stroke-dasharray:none;stroke-opacity:1"
       d="m 39.394632,984.54164 11.835394,0"
       inkscape:export-xdpi="101"
       inkscape:export-ydpi="101" />
    <path
       inkscape:connector-curvature="0"
       id="path6161-1"
       style="fill:none;stroke:#333333;stroke-width:1.99999976;stroke-linecap:round;stroke-linejoin:round;stroke-miterlimit:10;stroke-dasharray:none;stroke-opacity:1"
       d="m 134.07775,983.10857 -12.19405,0"
       inkscape:export-xdpi="101"
       inkscape:export-ydpi="101" />
    <path
       inkscape:connector-curvature="0"
       id="path6163-4"
       style="fill:none;stroke:#333333;stroke-width:1.99999976;stroke-linecap:round;stroke-linejoin:round;stroke-miterlimit:10;stroke-dasharray:none;stroke-opacity:1"
       d="m 127.98072,977.01778 -6.09702,6.09079"
       inkscape:export-xdpi="101"
       inkscape:export-ydpi="101" />
    <path
       inkscape:connector-curvature="0"
       id="path6165-5"
       style="fill:none;stroke:#333333;stroke-width:1.99999976;stroke-linecap:round;stroke-linejoin:round;stroke-miterlimit:10;stroke-dasharray:none;stroke-opacity:1"
       d="m 127.98072,977.01778 6.09703,6.09079"
       inkscape:export-xdpi="101"
       inkscape:export-ydpi="101" />
    <path
       inkscape:connector-curvature="0"
       id="path6167-1"
       style="fill:none;stroke:#333333;stroke-width:1.99999976;stroke-linecap:round;stroke-linejoin:round;stroke-miterlimit:10;stroke-dasharray:none;stroke-opacity:1"
       d="m 92.115909,954.44628 -0.717295,1.07495"
       inkscape:export-xdpi="101"
       inkscape:export-ydpi="101" />
    <path
       inkscape:connector-curvature="0"
       id="path6169-2"
       style="fill:none;stroke:#333333;stroke-width:1.99999976;stroke-linecap:round;stroke-linejoin:round;stroke-miterlimit:10;stroke-dasharray:none;stroke-opacity:1"
       d="m 97.136988,952.65499 1.434595,0.71663"
       inkscape:export-xdpi="101"
       inkscape:export-ydpi="101" />
    <path
       inkscape:connector-curvature="0"
       id="path6171-5"
       style="fill:none;stroke:#333333;stroke-width:1.99999976;stroke-linecap:round;stroke-linejoin:round;stroke-miterlimit:10;stroke-dasharray:none;stroke-opacity:1"
       d="m 95.343749,954.80469 -1.434601,0.35812 -1.793239,-0.71653"
       inkscape:export-xdpi="101"
       inkscape:export-ydpi="101" />
    <path
       inkscape:connector-curvature="0"
       id="path6173-6"
       style="fill:none;stroke:#333333;stroke-width:1.99999976;stroke-linecap:round;stroke-linejoin:round;stroke-miterlimit:10;stroke-dasharray:none;stroke-opacity:1"
       d="m 95.343749,954.80469 1.075941,-0.71663 0.717298,-1.43307"
       inkscape:export-xdpi="101"
       inkscape:export-ydpi="101" />
    <path
       inkscape:connector-curvature="0"
       id="path6175-5"
       style="fill:none;stroke:#333333;stroke-width:1.99999976;stroke-linecap:round;stroke-linejoin:round;stroke-miterlimit:10;stroke-dasharray:none;stroke-opacity:1"
       d="m 100.00616,953.72974 -1.434577,-0.35812"
       inkscape:export-xdpi="101"
       inkscape:export-ydpi="101" />
    <path
       inkscape:connector-curvature="0"
       id="path6177-6"
       style="fill:none;stroke:#333333;stroke-width:1.99999976;stroke-linecap:round;stroke-linejoin:round;stroke-miterlimit:10;stroke-dasharray:none;stroke-opacity:1"
       d="m 103.234,958.02905 0,1.43307"
       inkscape:export-xdpi="101"
       inkscape:export-ydpi="101" />
    <path
       inkscape:connector-curvature="0"
       id="path6179-7"
       style="fill:none;stroke:#333333;stroke-width:1.99999976;stroke-linecap:round;stroke-linejoin:round;stroke-miterlimit:10;stroke-dasharray:none;stroke-opacity:1"
       d="m 100.36481,956.59598 -0.35865,-1.07475 0,-1.79149"
       inkscape:export-xdpi="101"
       inkscape:export-ydpi="101" />
    <path
       inkscape:connector-curvature="0"
       id="path6181-7"
       style="fill:none;stroke:#333333;stroke-width:1.99999976;stroke-linecap:round;stroke-linejoin:round;stroke-miterlimit:10;stroke-dasharray:none;stroke-opacity:1"
       d="m 100.36481,956.59598 1.07595,1.07495 1.79324,0.35812"
       inkscape:export-xdpi="101"
       inkscape:export-ydpi="101" />
    <path
       inkscape:connector-curvature="0"
       id="path6183-2"
       style="fill:none;stroke:#333333;stroke-width:1.99999976;stroke-linecap:round;stroke-linejoin:round;stroke-miterlimit:10;stroke-dasharray:none;stroke-opacity:1"
       d="m 103.234,960.89529 0,-1.43317"
       inkscape:export-xdpi="101"
       inkscape:export-ydpi="101" />
    <path
       inkscape:connector-curvature="0"
       id="path6185-5"
       style="fill:none;stroke:#333333;stroke-width:1.99999976;stroke-linecap:round;stroke-linejoin:round;stroke-miterlimit:10;stroke-dasharray:none;stroke-opacity:1"
       d="m 100.00616,965.1947 -1.434577,0.35822"
       inkscape:export-xdpi="101"
       inkscape:export-ydpi="101" />
    <path
       inkscape:connector-curvature="0"
       id="path6187-3"
       style="fill:none;stroke:#333333;stroke-width:1.99999976;stroke-linecap:round;stroke-linejoin:round;stroke-miterlimit:10;stroke-dasharray:none;stroke-opacity:1"
       d="m 100.72346,962.32856 0.7173,-1.07495 1.79324,-0.35832"
       inkscape:export-xdpi="101"
       inkscape:export-ydpi="101" />
    <path
       inkscape:connector-curvature="0"
       id="path6189-6"
       style="fill:none;stroke:#333333;stroke-width:1.99999976;stroke-linecap:round;stroke-linejoin:round;stroke-miterlimit:10;stroke-dasharray:none;stroke-opacity:1"
       d="m 100.72346,962.32856 -0.7173,1.07475 0,1.79139"
       inkscape:export-xdpi="101"
       inkscape:export-ydpi="101" />
    <path
       inkscape:connector-curvature="0"
       id="path6191-6"
       style="fill:none;stroke:#333333;stroke-width:1.99999976;stroke-linecap:round;stroke-linejoin:round;stroke-miterlimit:10;stroke-dasharray:none;stroke-opacity:1"
       d="m 38.318687,977.01778 96.835003,0"
       inkscape:export-xdpi="101"
       inkscape:export-ydpi="101" />
    <path
       inkscape:connector-curvature="0"
       id="path6193-9"
       style="fill:none;stroke:#333333;stroke-width:1.99999976;stroke-linecap:round;stroke-linejoin:round;stroke-miterlimit:10;stroke-dasharray:none;stroke-opacity:1"
       d="m 92.115909,964.47806 -0.717295,-1.07475"
       inkscape:export-xdpi="101"
       inkscape:export-ydpi="101" />
    <path
       inkscape:connector-curvature="0"
       id="path6195-7"
       style="fill:none;stroke:#333333;stroke-width:1.99999976;stroke-linecap:round;stroke-linejoin:round;stroke-miterlimit:10;stroke-dasharray:none;stroke-opacity:1"
       d="m 95.343749,964.11975 1.075941,0.35831 0.717298,1.43317"
       inkscape:export-xdpi="101"
       inkscape:export-ydpi="101" />
    <path
       inkscape:connector-curvature="0"
       id="path6197-7"
       style="fill:none;stroke:#333333;stroke-width:1.99999976;stroke-linecap:round;stroke-linejoin:round;stroke-miterlimit:10;stroke-dasharray:none;stroke-opacity:1"
       d="m 95.343749,964.11975 -1.434601,-0.35812 -1.793239,0.71643"
       inkscape:export-xdpi="101"
       inkscape:export-ydpi="101" />
    <path
       inkscape:connector-curvature="0"
       id="path6199-6"
       style="fill:none;stroke:#333333;stroke-width:1.99999976;stroke-linecap:round;stroke-linejoin:round;stroke-miterlimit:10;stroke-dasharray:none;stroke-opacity:1"
       d="m 91.757262,959.46212 0,-1.43307 -1.075951,-1.07475"
       inkscape:export-xdpi="101"
       inkscape:export-ydpi="101" />
    <path
       inkscape:connector-curvature="0"
       id="path6201-0"
       style="fill:none;stroke:#333333;stroke-width:1.99999976;stroke-linecap:round;stroke-linejoin:round;stroke-miterlimit:10;stroke-dasharray:none;stroke-opacity:1"
       d="m 91.757262,959.46212 0,1.43317 -1.075951,1.07485"
       inkscape:export-xdpi="101"
       inkscape:export-ydpi="101" />
    <path
       inkscape:connector-curvature="0"
       id="path6203-5"
       style="fill:none;stroke:#333333;stroke-width:1.99999976;stroke-linecap:round;stroke-linejoin:round;stroke-miterlimit:10;stroke-dasharray:none;stroke-opacity:1"
       d="m 90.681311,956.9543 0.717303,-1.43307"
       inkscape:export-xdpi="101"
       inkscape:export-ydpi="101" />
    <path
       inkscape:connector-curvature="0"
       id="path6205-4"
       style="fill:none;stroke:#333333;stroke-width:1.99999976;stroke-linecap:round;stroke-linejoin:round;stroke-miterlimit:10;stroke-dasharray:none;stroke-opacity:1"
       d="m 90.681311,961.97014 0.717303,1.43317"
       inkscape:export-xdpi="101"
       inkscape:export-ydpi="101" />
    <path
       inkscape:connector-curvature="0"
       id="path6207-1"
       style="fill:none;stroke:#333333;stroke-width:1.99999976;stroke-linecap:round;stroke-linejoin:round;stroke-miterlimit:10;stroke-dasharray:none;stroke-opacity:1"
       d="m 98.212929,961.25361 0.358654,-0.71654 0.35865,-0.71653 0,-1.07486 -0.35865,-0.71663 -0.717295,-0.71644 -0.7173,-0.35831 -1.075948,0 -0.717291,0.35831 -0.717301,0.71644 -0.35865,1.07485 0,1.07495 0.35865,0.71644 0.717301,0.35832 1.075941,0.35831 0.717298,0 1.075941,-0.35831"
       inkscape:export-xdpi="101"
       inkscape:export-ydpi="101" />
    <path
       inkscape:connector-curvature="0"
       id="path6209-9"
       style="fill:none;stroke:#333333;stroke-width:1.99999976;stroke-linecap:round;stroke-linejoin:round;stroke-miterlimit:10;stroke-dasharray:none;stroke-opacity:1"
       d="m 96.06104,943.69795 0.35865,1.43317 0.358649,1.07485 0.71729,1.07495 1.075954,1.07476 1.07593,0.71643 1.075947,0.35832 1.43459,0.35832 1.07595,0 1.07595,-0.35832 1.43458,-0.35832 1.07595,-0.71643 0.71729,-1.07476 0.71729,-1.07495 0.71731,-1.07485 0,-3.58278 -0.35866,-1.43316 -0.71729,-1.07486 -1.07594,-0.71643 -1.07595,-1.07476 -1.43458,-0.35841 -1.07595,-0.35822 -1.07595,0 -1.43459,0.35822 -1.075947,0.35841 -1.07593,0.71654 -1.075954,1.07465 -0.71729,1.07486 -0.358649,1.07495 -0.35865,1.43316 0,1.07466"
       inkscape:export-xdpi="101"
       inkscape:export-ydpi="101" />
    <path
       inkscape:connector-curvature="0"
       id="path6211-5"
       style="fill:none;stroke:#333333;stroke-width:1.99999976;stroke-linecap:round;stroke-linejoin:round;stroke-miterlimit:10;stroke-dasharray:none;stroke-opacity:1"
       d="m 90.681311,944.7729 0.358648,1.43307 0.358655,1.43307 1.793236,-0.35812 1.075948,1.43307 0.35865,1.07476 -0.7173,1.43307 1.075952,1.07495 1.43459,1.07485 1.075939,-1.07485 1.434604,0.35822 1.075927,0.35831 0.35865,1.79139 1.43459,0 1.4346,0.35812 0.7173,-1.79119 1.07593,-0.35832 1.4346,-0.35831 1.07594,1.43307 1.4346,-1.07476 1.07595,-0.71653 -0.35865,-1.43317 0.71729,-1.07485 1.07594,-1.07476 1.4346,0.35812 0.71729,-1.43307 0.35865,-1.43307 -1.43458,-1.07485 0,-1.43317 0.35864,-1.43297 1.43458,-0.71664 -0.35864,-1.43316 -0.35865,-1.43308 -1.79323,0.35822 -0.7173,-1.43297 -0.7173,-1.07485 1.07594,-1.43307 -1.43458,-1.07495 -1.07595,-0.71654 -1.4346,1.07476 -1.07594,-0.71644 -1.4346,-0.35832 0,-1.79139 -1.79323,0 -1.4346,-0.35821 -0.35864,1.79129 -1.4346,0.35831 -1.434577,0.35832 -1.075954,-1.43307 -1.075939,1.07475 -1.43459,0.71654 0.717299,1.43317 -0.717299,1.43307 -1.075952,0.71663 -1.793239,-0.35822 -0.358647,1.43297 -0.717303,1.43308 1.434597,1.07495 0,2.86614 -1.793245,0.71663"
       inkscape:export-xdpi="101"
       inkscape:export-ydpi="101" />
    <path
       inkscape:connector-curvature="0"
       id="path6213-0"
       style="fill:none;stroke:#333333;stroke-width:1.99999976;stroke-linecap:round;stroke-linejoin:round;stroke-miterlimit:10;stroke-dasharray:none;stroke-opacity:1"
       d="m 68.086472,940.11518 0.358648,1.43316 0.358648,1.43307 1.79324,0 0.717298,1.07486 0.717295,1.07485 -0.717295,1.43317 1.075944,1.07475 1.075944,1.07495 1.434594,-1.07495 1.434599,0.35832 1.075943,0.71663 0.358649,1.43307 1.434592,0.35822 1.434593,0 0.35865,-1.79129 1.434589,-0.35831 1.434596,-0.35832 1.075942,1.43307 1.434597,-0.71644 1.075942,-1.07495 -0.717295,-1.43307 1.075941,-1.07485 1.07595,-1.07485 1.434589,0.35822 0.717294,-1.43308 0.358655,-1.43307 -1.434596,-1.07485 0,-1.07485 0.358647,-1.43297 1.434597,-0.71654 -0.358648,-1.43327 -0.358655,-1.43316 -1.793235,0 -0.717295,-1.07476 -0.717303,-1.43307 0.717303,-1.43307 -1.075949,-1.07495 -1.075942,-0.71654 -1.434597,1.07486 -1.075942,-0.35832 -1.434596,-0.71654 -0.358647,-1.79138 -2.869185,0 -0.358647,1.43317 -1.434594,0.35821 -1.434592,0.35832 -1.07595,-1.07475 -1.434594,0.71643 -1.075944,0.71654 0.717296,1.79149 -1.075945,1.07485 -0.717295,1.07475 -1.793242,-0.35831 -0.358648,1.43307 -0.717296,1.07495 1.434593,1.07485 0,1.43317 -0.358649,1.43297 -1.434592,0.71654"
       inkscape:export-xdpi="101"
       inkscape:export-ydpi="101" />
    <path
       inkscape:connector-curvature="0"
       id="path6215-4"
       style="fill:none;stroke:#333333;stroke-width:1.99999976;stroke-linecap:round;stroke-linejoin:round;stroke-miterlimit:10;stroke-dasharray:none;stroke-opacity:1"
       d="m 73.466194,939.04032 0.358649,1.43317 0.358648,1.07485 0.717297,1.07495 1.07595,1.07466 1.075944,0.71654 1.075944,0.35841 1.075945,0.35822 1.434593,0 1.075945,-0.35822 1.075941,-0.35841 1.075949,-0.71654 1.075942,-1.07466 0.717294,-1.07495 0.717303,-1.07485 0,-3.58277 -0.717303,-1.43307 -0.717294,-1.07495 -0.717294,-0.71644 -1.075942,-0.71663 -1.434596,-0.71644 -3.586483,0 -1.075944,0.71644 -1.075944,0.71663 -1.07595,0.71644 -0.717297,1.07495 -0.358648,1.43307 -0.358649,1.07495 0,1.07465"
       inkscape:export-xdpi="101"
       inkscape:export-ydpi="101" />
    <path
       inkscape:connector-curvature="0"
       id="path6219-9"
       style="fill:none;stroke:#333333;stroke-width:1.99999976;stroke-linecap:round;stroke-linejoin:round;stroke-miterlimit:10;stroke-dasharray:none;stroke-opacity:1"
       d="m 27.559238,993.8568 122.299022,0 0,-73.80511 -122.299022,0 0,73.80511"
       inkscape:export-xdpi="101"
       inkscape:export-ydpi="101" />
    <path
       inkscape:connector-curvature="0"
       id="path6221-2"
       style="fill:none;stroke:#333333;stroke-width:1.99999976;stroke-linecap:round;stroke-linejoin:round;stroke-miterlimit:10;stroke-dasharray:none;stroke-opacity:1"
       d="m 80.280516,993.8568 0,18.6307"
       inkscape:export-xdpi="101"
       inkscape:export-ydpi="101" />
    <path
       inkscape:connector-curvature="0"
       id="path6223-8"
       style="fill:none;stroke:#333333;stroke-width:1.99999976;stroke-linecap:round;stroke-linejoin:round;stroke-miterlimit:10;stroke-dasharray:none;stroke-opacity:1"
       d="m 97.136988,993.8568 0,18.6307"
       inkscape:export-xdpi="101"
       inkscape:export-ydpi="101" />
    <path
       inkscape:connector-curvature="0"
       id="path6225-3"
       style="fill:none;stroke:#333333;stroke-width:1.99999976;stroke-linecap:round;stroke-linejoin:round;stroke-miterlimit:10;stroke-dasharray:none;stroke-opacity:1"
       d="m 118.29722,1012.4875 0,3.2244"
       inkscape:export-xdpi="101"
       inkscape:export-ydpi="101" />
    <path
       inkscape:connector-curvature="0"
       id="path6227-8"
       style="fill:none;stroke:#333333;stroke-width:1.99999976;stroke-linecap:round;stroke-linejoin:round;stroke-miterlimit:10;stroke-dasharray:none;stroke-opacity:1"
       d="m 58.761616,1012.4875 0,3.2244"
       inkscape:export-xdpi="101"
       inkscape:export-ydpi="101" />
    <path
       inkscape:connector-curvature="0"
       id="path6229-0"
       style="fill:none;stroke:#333333;stroke-width:1.99999976;stroke-linecap:round;stroke-linejoin:round;stroke-miterlimit:10;stroke-dasharray:none;stroke-opacity:1"
       d="m 58.761616,1012.4875 59.535604,0"
       inkscape:export-xdpi="101"
       inkscape:export-ydpi="101" />
    <path
       inkscape:connector-curvature="0"
       id="path6231-9"
       style="fill:none;stroke:#333333;stroke-width:1.99999976;stroke-linecap:round;stroke-linejoin:round;stroke-miterlimit:10;stroke-dasharray:none;stroke-opacity:1"
       d="m 58.761616,1015.7119 59.535604,0"
       inkscape:export-xdpi="101"
       inkscape:export-ydpi="101" />
    <path
       inkscape:connector-curvature="0"
       id="path6233-1"
       style="fill:none;stroke:#333333;stroke-width:1.99999976;stroke-linecap:round;stroke-linejoin:round;stroke-miterlimit:10;stroke-dasharray:none;stroke-opacity:1"
       d="m 18.951679,1014.6371 2.151889,2.8662 2.510539,3.2245 2.869185,2.8662 2.869187,2.8663 2.869186,2.5079 3.227835,2.8661 3.586483,2.5079 3.227836,2.1498 3.94513,2.5079 3.586485,1.7915 3.945107,1.7913 4.303778,1.7914 3.945131,1.4332 4.303781,1.4331 4.303777,1.0747 4.662427,0.7166 4.303784,0.7165 4.30378,0.3584 8.966204,0 4.303785,-0.3584 4.303772,-0.7165 4.30377,-0.7166 4.30379,-1.0747 3.94512,-1.075 4.30378,-1.4332 3.58648,-1.433 3.94513,-1.4331 3.58648,-2.1497 3.22785,-1.7913 3.58648,-2.1497 3.22782,-2.1496 2.86919,-2.1497 2.86919,-2.5079 3.22782,-2.8662 2.8692,-2.8662 2.51053,-2.8662 2.86919,-3.2246 2.51054,-3.5829 2.1519,-3.2244 2.15188,-3.941 2.15188,-3.5828 1.79325,-3.94113 1.79325,-4.29943 1.43458,-3.9409 1.43459,-4.29941 0.71729,-4.29931 1.07594,-4.65763 0.35864,-4.29931 0.35865,-4.2994 0.35865,-4.65763 -0.35865,-4.29921 0,-4.29931 -0.71729,-4.29941 -0.7173,-4.29931 -1.07593,-4.29922 -1.07594,-3.94119 -1.43459,-4.2994 -1.43459,-3.58258 -1.79325,-3.94119 -1.79324,-3.58268 -1.79325,-3.22456 -2.15188,-3.58277 -2.15189,-3.22456 -2.51053,-2.86624 -2.51054,-2.86614 -2.51054,-3.22456 -2.8692,-2.86614 -2.86917,-2.50802 -3.22784,-2.86614 -3.58648,-2.50792 -3.58648,-2.14971 -3.58649,-2.1498 -3.94512,-2.14941 -3.94513,-1.79158 -3.94514,-1.79139 -4.30378,-1.43297 -4.30377,-1.43317 -4.30378,-0.71654 -4.30378,-1.07485 -4.303762,-0.35832 -4.662438,-0.35821 -4.303774,-0.35832 -4.303781,0.35832 -4.662429,0 -4.303782,0.71653 -4.303778,0.71663 -3.945129,1.07476 -4.303781,1.07475 -3.945132,1.43327 -3.94513,1.43307 -3.586459,1.79139 -3.586483,1.79129 -3.586485,1.79148 -3.227834,2.14971 -3.227835,2.14951 -2.869185,2.50792 -3.227836,2.50802 -2.869186,2.50792 -2.869186,2.86634 -2.510538,2.86614 -2.869187,3.22446 -2.510538,3.58277 -2.15189,3.58278 -2.510538,3.58287 -1.793242,3.941 -2.1518887,3.94099 -1.4345939,3.94109 -1.4345929,4.29941 -1.4345932,4.29931 -1.0759451,4.29931 -0.7172966,4.29931 -0.7172965,4.29941 -0.3586484,4.65743 0,8.59882 0.3586484,4.29941 0.7172965,4.65743 0.7172966,4.2995 1.0759451,3.9409 1.0759448,4.29931 1.4345932,3.94119 1.434593,3.94099 1.4345927,3.58293 2.15189,3.5826 1.793242,3.5829 2.151888,3.2245 2.151892,3.2245"
       inkscape:export-xdpi="101"
       inkscape:export-ydpi="101" />
    <path
       inkscape:connector-curvature="0"
       id="path6267-5"
       style="fill:none;stroke:#333333;stroke-width:1.99999976;stroke-linecap:round;stroke-linejoin:round;stroke-miterlimit:10;stroke-dasharray:none;stroke-opacity:1"
       d="m 97.136988,965.91123 1.434595,-0.35831"
       inkscape:export-xdpi="101"
       inkscape:export-ydpi="101" />
    <rect
       style="opacity:1;fill:#333333;fill-opacity:1;fill-rule:nonzero;stroke:#333333;stroke-width:1;stroke-linecap:square;stroke-linejoin:miter;stroke-miterlimit:10;stroke-dasharray:none;stroke-dashoffset:0;stroke-opacity:1"
       id="rect4153"
       width="116.42856"
       height="161.42856"
       x="-666.78564"
       y="1268.7908" />
  </g>
</svg>
