<?xml version="1.0" encoding="UTF-8" standalone="no"?>
<!-- Created with Inkscape (http://www.inkscape.org/) -->

<svg
   xmlns:dc="http://purl.org/dc/elements/1.1/"
   xmlns:cc="http://creativecommons.org/ns#"
   xmlns:rdf="http://www.w3.org/1999/02/22-rdf-syntax-ns#"
   xmlns:svg="http://www.w3.org/2000/svg"
   xmlns="http://www.w3.org/2000/svg"
   xmlns:sodipodi="http://sodipodi.sourceforge.net/DTD/sodipodi-0.dtd"
   xmlns:inkscape="http://www.inkscape.org/namespaces/inkscape"
   width="160mm"
   height="40mm"
   viewBox="0 0 566.92913 141.73228"
   id="svg2"
   version="1.1"
   inkscape:version="0.91 r13725"
   sodipodi:docname="logo.svg">
  <defs
     id="defs4" />
  <sodipodi:namedview
     id="base"
     pagecolor="#ffffff"
     bordercolor="#666666"
     borderopacity="1.0"
     inkscape:pageopacity="0.0"
     inkscape:pageshadow="2"
     inkscape:zoom="1.4"
     inkscape:cx="281.04844"
     inkscape:cy="189.05616"
     inkscape:document-units="px"
     inkscape:current-layer="layer1"
     showgrid="false"
     inkscape:window-width="1600"
     inkscape:window-height="838"
     inkscape:window-x="-8"
     inkscape:window-y="-8"
     inkscape:window-maximized="1"
     showguides="true"
     inkscape:guide-bbox="true" />
  <metadata
     id="metadata7">
    <rdf:RDF>
      <cc:Work
         rdf:about="">
        <dc:format>image/svg+xml</dc:format>
        <dc:type
           rdf:resource="http://purl.org/dc/dcmitype/StillImage" />
        <dc:title></dc:title>
      </cc:Work>
    </rdf:RDF>
  </metadata>
  <g
     inkscape:label="Ebene 1"
     inkscape:groupmode="layer"
     id="layer1"
     transform="translate(0,-910.62993)">
    <path
       style="fill:#ddeed8;fill-opacity:1"
       d="m 66.930063,1045.4345 c -0.15105,-0.19 -2.17801,-3.4543 -4.50434,-7.2539 -2.32634,-3.7997 -6.01073,-9.8054 -8.18754,-13.3459 -2.17681,-3.5407 -3.95783,-6.4847 -3.95783,-6.5423 0,-0.058 0.65285,-0.2962 1.45077,-0.5301 1.13393,-0.3324 1.51707,-0.3521 1.75426,-0.09 0.1669,0.1845 1.42623,2.1386 2.79849,4.3424 2.07778,3.3368 7.27052,11.5873 10.41064,16.541 0.70433,1.1111 0.78998,1.1645 1.10822,0.6908 0.1897,-0.2823 2.17677,-3.4636 4.41572,-7.0694 l 4.07082,-6.556 1.2194,0.6147 c 0.67067,0.3382 1.22281,0.7156 1.22699,0.8387 0.004,0.1232 -1.775,3.1076 -3.95373,6.6322 -2.17871,3.5244 -4.74001,7.6828 -5.69177,9.2406 -0.95175,1.5579 -1.76533,2.8325 -1.80797,2.8325 -0.0426,0 -0.20108,-0.1554 -0.35213,-0.3454 z m -42.55038,-21.7509 c -0.39889,-0.3717 -0.53166,-0.7408 -0.42245,-1.1745 0.27218,-1.0808 1.76276,-3.534 2.14725,-3.534 1.21101,0 1.5703,0.7832 0.81645,1.7799 -0.77072,1.019 -0.51604,1.1863 2.01225,1.3218 2.52229,0.1351 3.93782,0.5826 3.93782,1.2449 0,0.3176 -0.39841,0.3544 -2.16818,0.2 -1.63364,-0.1425 -2.54682,-0.079 -3.70401,0.2573 -1.92171,0.5587 -1.91682,0.5589 -2.61913,-0.095 z m 5.83654,-5.6983 c 0.0923,-0.2404 0.16774,-0.6583 0.16774,-0.9286 0,-0.2704 0.3221,-0.9662 0.71578,-1.5463 0.39369,-0.5802 1.90066,-3.3022 3.34883,-6.049 1.44817,-2.7467 3.37727,-6.2712 4.2869,-7.832 1.26481,-2.17043 1.6134,-2.99923 1.48184,-3.52339 -0.24054,-0.95838 -1.72651,-0.93768 -3.21105,0.0448 -1.06708,0.70611 -1.12135,0.71381 -1.6521,0.23351 -0.30183,-0.27315 -0.54854,-0.57063 -0.54825,-0.66107 2.7e-4,-0.0904 0.61867,-0.58572 1.37416,-1.10063 1.14368,-0.77949 1.63557,-0.94 2.93829,-0.95883 1.45496,-0.0211 1.61993,0.0436 2.35298,0.92166 0.43357,0.51935 0.91931,1.34119 1.07941,1.82631 0.27652,0.83786 0.12286,1.16356 -3.06914,6.50604 -3.60325,6.0308 -8.662,13.5046 -9.1408,13.5046 -0.16078,0 -0.21684,-0.1967 -0.12459,-0.4371 z m 41.95119,-2.0998 c 0.80395,-1.2108 5.42809,-1.9276 6.08802,-0.9437 0.6496,0.9685 -0.82752,1.5462 -3.95358,1.5462 l -2.53448,0 0.40004,-0.6025 z m 26.748574,-0.2086 c -2.173394,-0.6635 -4.358294,-2.3798 -4.050544,-3.1817 0.25204,-0.6568 1.51508,-0.5164 3.407364,0.3788 1.790433,0.847 2.447273,1.6131 2.159743,2.5191 -0.18294,0.5764 -0.41565,0.6199 -1.516563,0.2838 z m -20.224044,-1.863 c -1.1442,-0.302 -0.86322,-6.395 0.45663,-9.9015 1.2454,-3.3087 2.88119,-6.24909 4.58391,-8.23958 0.93286,-1.09053 1.95045,-2.49652 2.26131,-3.12441 l 0.56519,-1.14164 -0.61931,-2.3126 c -0.5936,-2.2166 -2.25319,-5.80248 -3.26281,-7.05002 -0.85766,-1.05975 -1.47664,-1.01992 -3.09947,0.19946 -1.76035,1.32269 -3.33293,2.26819 -4.77197,2.86912 l -1.03627,0.43273 0,-0.93737 c 0,-0.78893 0.13648,-0.9939 0.86188,-1.29437 0.47404,-0.19636 1.56212,-0.95584 2.41797,-1.68774 0.85584,-0.7319 2.25742,-1.70551 3.11462,-2.16357 3.33486,-1.78204 4.67527,-0.88328 6.61682,4.43668 0.79631,2.18193 1.90285,6.9158 1.90841,8.16432 0.001,0.32124 -0.28233,0.88083 -0.63058,1.24352 -1.62445,1.69184 -3.29306,3.88623 -4.47077,5.87954 -2.24021,3.79163 -3.89363,11.25913 -3.11187,14.05453 0.19612,0.7013 0.15347,0.7575 -0.55268,0.7279 -0.42086,-0.018 -0.97481,-0.087 -1.23101,-0.155 z m 21.416767,-1.2637 c -0.467533,-0.494 -1.003483,-1.209 -1.190993,-1.589 -0.1875,-0.3799 -0.75653,-1.3126 -1.2645,-2.0725 -2.022444,-3.0256 -2.736924,-9.08723 -1.693774,-14.36965 0.27012,-1.36787 0.56526,-3.66839 0.65587,-5.11227 l 0.16472,-2.62521 -1.41086,-2.81109 c -0.77597,-1.5461 -1.54035,-2.89112 -1.69862,-2.98894 -0.15827,-0.0978 -0.69877,-0.82246 -1.20111,-1.61033 -1.38524,-2.17257 -1.97946,-7.33559 -1.27303,-11.06066 0.32155,-1.69547 2.7333,-6.76142 3.29816,-6.92783 0.22797,-0.0672 0.95615,-0.20653 1.61817,-0.30971 l 1.203674,-0.18758 -0.196054,1.16041 c -0.10783,0.63822 -0.66807,1.99337 -1.24498,3.01144 -1.4304,2.52426 -1.93349,4.3851 -1.93349,7.15153 0,1.9345 0.13802,2.66649 0.8275,4.38836 0.45512,1.13662 1.20896,2.62102 1.67519,3.29867 2.385984,3.4679 3.438444,7.28698 3.013774,10.93614 -0.14757,1.26796 -0.39779,3.44508 -0.55606,4.83804 -0.15827,1.39297 -0.40646,2.94655 -0.55154,3.45245 -0.62352,2.17403 -0.0366,4.48623 1.891163,7.45143 1.14727,1.7646 2.81916,5.6624 2.81916,6.5725 0,0.166 -0.47302,0.3019 -1.05115,0.3019 -0.82731,0 -1.23217,-0.1912 -1.90122,-0.8981 z m -56.557507,-3.8012 c -0.4026,-0.4784 -0.732,-0.9897 -0.732,-1.136 0,-0.2002 0.98064,-2.3413 1.20898,-2.6397 0.0196,-0.026 0.36717,-0.1298 0.77234,-0.2315 0.58428,-0.1466 0.80342,-0.06 1.05938,0.4181 0.27007,0.5047 0.2287,0.7031 -0.25364,1.2166 -1.0074,1.0723 -0.75746,1.2687 1.61462,1.2687 1.62334,0 2.30348,0.1125 2.62522,0.4342 0.90788,0.9079 0.55423,1.0479 -3.46242,1.3708 -2.09972,0.1687 -2.10072,0.1685 -2.83248,-0.7012 z m 3.95554,-5.1651 c 0.10851,-0.5781 0.77825,-2.6559 1.48832,-4.61753 0.71007,-1.96158 1.24296,-3.61457 1.1842,-3.67333 -0.0588,-0.0588 -0.54854,0.10381 -1.08841,0.36126 -0.83458,0.39798 -1.1087,0.41543 -1.83041,0.11649 -1.32789,-0.55003 -1.03216,-1.06483 1.20559,-2.09873 2.27532,-1.05126 3.56929,-1.18135 4.5145,-0.45385 0.6008,0.46241 0.61123,0.53603 0.2438,1.72098 -0.21111,0.68084 -1.3839,3.10319 -2.60619,5.38301 -1.57657,2.9406 -2.38019,4.1694 -2.76552,4.2289 -0.48719,0.075 -0.52284,-0.024 -0.34588,-0.9672 z m -11.35171,-9.96295 c -0.98692,-2.54497 1.86064,-9.18276 5.69698,-13.27988 2.95484,-3.15571 6.17759,-4.42144 7.87566,-3.09319 l 0.69085,0.54039 -1.10963,0.006 c -0.61202,0.003 -1.62984,0.28498 -2.26963,0.62791 -1.43746,0.77048 -4.86891,4.56836 -5.80499,6.42487 -0.38316,0.75994 -0.91041,1.69258 -1.17167,2.07254 -0.61026,0.88759 -2.2175,5.3645 -2.2175,6.17682 0,1.33951 -1.2264,1.72006 -1.69007,0.52441 z m 21.31013,0.31651 c 0,-0.0311 0.66921,-0.43417 1.48714,-0.89578 1.78643,-1.00821 2.73956,-2.11339 2.49288,-2.89061 -0.15857,-0.49962 -0.0806,-0.53529 0.84265,-0.38546 0.95884,0.1556 1.28082,-0.0249 5.59407,-3.13658 2.51716,-1.81593 4.68502,-3.3017 4.81745,-3.3017 0.13243,0 0.23845,0.21762 0.23561,0.48359 -0.006,0.56703 -2.08746,2.34025 -5.90504,5.03074 -1.50278,1.0591 -2.94319,2.27237 -3.20092,2.69617 -0.25772,0.42379 -0.91597,1.16334 -1.46277,1.64344 -0.92546,0.81256 -1.1292,0.87082 -2.94763,0.84279 -1.07439,-0.0166 -1.95344,-0.0555 -1.95344,-0.0866 z m -12.1043,-0.45796 c -0.30628,-0.36905 -0.44499,-1.26752 -0.37393,-2.42218 0.0976,-1.58568 2.80029,-3.37215 2.8106,-1.85779 0.006,0.93963 0.41507,1.41195 1.07284,1.23994 0.83721,-0.21894 0.71847,0.23868 -0.40142,1.54702 -1.43899,1.68113 -2.52072,2.20075 -3.10809,1.49301 z m 12.1043,-2.13555 c -0.37997,-0.12645 -1.95234,-0.6161 -3.49416,-1.0881 -2.72874,-0.83537 -2.85038,-0.9081 -4.57287,-2.73403 -3.65466,-3.87413 -4.21603,-7.41985 -1.3619,-8.60207 2.00341,-0.82984 3.1098,0.52616 1.30038,1.59374 -1.29693,0.76521 -1.50297,1.6726 -0.6841,3.01256 2.42104,3.96162 3.36452,4.65684 7.95386,5.8609 3.40962,0.89455 4.09398,1.24755 3.59175,1.8527 -0.34396,0.41444 -1.65113,0.46433 -2.73296,0.1043 z m -4.59619,-4.00544 c -0.19999,-0.52114 0.41798,-1.49554 2.64228,-4.16637 l 1.77666,-2.13334 -0.34594,-3.15383 c -0.36546,-3.33173 -0.83832,-10.35058 -0.85098,-12.63158 -0.007,-1.33808 -7.6e-4,-1.34903 0.54515,-0.85527 0.32819,0.29701 0.55123,0.84757 0.54914,1.35544 -0.002,0.4704 0.17667,1.72574 0.39694,2.78965 0.73892,3.56911 0.96726,5.80866 0.79803,7.82728 -0.15973,1.90513 -0.13136,2.04341 0.5692,2.77463 0.94431,0.98565 1.36666,2.39091 0.95612,3.18124 -0.71771,1.38164 -2.03218,2.02808 -2.21315,1.08838 -0.0605,-0.3144 -0.70621,0.31283 -1.99123,1.93438 -1.86397,2.35212 -2.51701,2.81082 -2.83222,1.98939 z m -23.12257,-2.55139 c -0.0707,-0.11894 -2.39446,-4.38207 -5.16379,-9.47361 -2.76934,-5.09155 -5.62551,-10.31435 -6.34704,-11.60623 -2.74337,-4.91199 -7.19533,-13.17417 -7.19533,-13.35349 0,-0.10292 24.74614,-0.18712 54.99142,-0.18712 30.24529,0 54.991437,0.0544 54.991437,0.12098 0,0.10264 -5.63937,10.07683 -14.69637,25.99304 -1.21081,2.12781 -2.2868,3.95711 -2.39108,4.06513 -0.18161,0.18809 -3.08529,-0.53226 -3.08529,-0.76541 0,-0.10933 1.40442,-2.41159 7.3229,-12.00439 5.79755,-9.39679 8.42842,-13.7904 8.42842,-14.07562 0,-0.20669 -14.85372,-0.294 -50.017337,-0.294 -30.85124,0 -50.01733,0.099 -50.01733,0.25844 0,0.14214 3.61203,6.87801 8.02674,14.9686 6.44423,11.80998 7.9561,14.77435 7.6684,15.03575 -0.71801,0.65241 -2.39047,1.52857 -2.51575,1.31793 z m 38.27032,-1.58504 -1.05627,-0.95427 -0.77865,0.74701 c -0.58003,0.55646 -0.73359,0.6175 -0.60197,0.23927 0.33325,-0.95766 0.52246,-2.67015 0.29502,-2.67015 -0.1251,0 -0.57623,0.33415 -1.00251,0.74255 -0.71176,0.68191 -0.77505,0.69742 -0.77505,0.18987 0,-1.009 2.41049,-2.86679 3.71968,-2.86679 0.68125,0 1.23733,-0.4171 3.04732,-2.28572 3.09196,-3.19212 7.87896,-6.351 7.87896,-5.19924 0,0.11356 -0.55264,0.60334 -1.22809,1.08841 -2.0041,1.43923 -3.80392,3.07035 -6.24939,5.6636 -2.08342,2.20931 -2.25559,2.47293 -1.78658,2.7354 0.28547,0.15976 0.94589,0.68165 1.46761,1.15977 l 0.94858,0.86931 -1.12973,0.74763 c -0.62135,0.41119 -1.2564,0.74762 -1.4112,0.74762 -0.15481,0 -0.75679,-0.42942 -1.33773,-0.95427 z m 14.56412,-7.55904 -0.93603,-0.83583 -0.0942,-2.92377 c -0.083,-2.57749 -0.021,-3.07487 0.52342,-4.19961 0.76583,-1.582 2.15616,-2.30356 4.45575,-2.31245 1.3695,-0.005 1.64169,0.0865 2.14163,0.72204 0.39898,0.50722 0.57274,1.13104 0.57274,2.05623 0,1.57358 -0.37417,1.94753 -0.88303,0.88254 -0.61597,-1.28918 -1.47811,-1.15478 -3.00157,0.4679 -1.63386,1.74029 -2.09066,2.93467 -1.64215,4.29368 0.40227,1.21886 1.31771,1.49958 2.96204,0.90828 1.64268,-0.5907 1.61381,0.0773 -0.0379,0.87684 -2.09251,1.01298 -2.98234,1.02703 -4.06068,0.0642 z m -32.98634,0.12281 c -0.43593,-0.31877 -1.37128,-2.63241 -1.1526,-2.85108 0.0395,-0.0395 0.52555,0.25089 1.08004,0.64541 0.55448,0.39452 1.18107,0.65095 1.39243,0.56985 1.05069,-0.40319 1.6043,-3.59819 1.0604,-6.11975 -0.25714,-1.19214 -1.35756,-1.40932 -2.6134,-0.51578 -0.98986,0.70429 -2.12075,0.68984 -2.12075,-0.0271 0,-0.5458 1.20161,-1.53634 2.21696,-1.82753 3.0527,-0.87551 5.23836,1.40424 5.24265,5.46835 0.002,2.02229 -0.54871,3.15793 -2.02413,4.17305 -1.35472,0.93207 -2.27229,1.07635 -3.0816,0.48458 z m 44.11563,-16.21208 c 0.99262,-0.57935 12.941267,-4.37041 15.159937,-4.80993 2.37259,-0.47 3.86287,-0.31617 3.86287,0.39876 0,0.36643 0.22318,0.30434 -5.50188,1.53052 -2.64607,0.56672 -5.56836,1.3316 -6.49397,1.69972 -2.455633,0.97663 -8.383857,1.97291 -7.026957,1.18093 z m 0.78444,-1.42479 c 0,-0.87687 0.73111,-1.41413 1.96147,-1.44139 1.684544,-0.0373 1.693914,0.70525 0.0125,0.99229 -0.66215,0.11304 -1.37717,0.34932 -1.58894,0.52508 -0.29866,0.24786 -0.38505,0.23082 -0.38505,-0.076 z m -55.82045,-28.27321 0,-13.67877 8.84284,0 8.84284,0 0,2.90155 0,2.90156 -5.52678,0 -5.52677,0 0,2.21072 0,2.2107 5.11227,0 5.11226,0 0,2.76339 0,2.76339 -5.11226,0 -5.11227,0 0,2.76339 0,2.76339 5.66495,0 5.66494,0 0,3.03972 0,3.03973 -8.98101,0 -8.98101,0 0,-13.67877 z m 26.80539,3.39392 7.5e-4,-10.30239 -3.31659,0.0853 -3.31658,0.0853 0,-3.47049 0,-3.47048 9.9567,0 9.9567,0 -0.0776,3.38515 -0.0776,3.38515 -3.17789,0 -3.1779,0 -0.13817,10.22454 -0.13817,10.22453 -3.24698,0.0779 -3.24698,0.0779 7.6e-4,-10.30239 z m 16.30347,-3.39392 0,-13.67877 8.15199,0 8.152004,0 0,2.90155 0,2.90156 -4.835934,0 -4.83593,0 0,2.48705 0,2.48705 4.15509,0 4.15509,0 -0.0791,2.67571 -0.0791,2.67571 -3.52123,-0.0698 c -1.93667,-0.0384 -3.77087,0.009 -4.07599,0.10629 -0.53102,0.16855 -0.55477,0.41187 -0.55477,5.68423 l 0,5.50816 -3.31607,0 -3.31606,0 0,-13.67877 z"
       id="path4147"
       inkscape:connector-curvature="0" />
    <text
       xml:space="preserve"
       style="font-style:normal;font-variant:normal;font-weight:bold;font-stretch:normal;font-size:39.30896759px;line-height:125%;font-family:sans-serif;-inkscape-font-specification:'sans-serif, Bold';text-align:center;letter-spacing:0px;word-spacing:0px;writing-mode:lr-tb;text-anchor:middle;fill:#ddeed8;fill-opacity:1;stroke:none;stroke-width:1px;stroke-linecap:butt;stroke-linejoin:miter;stroke-opacity:1"
       x="333.87589"
       y="985.31384"
       id="text4157"
       sodipodi:linespacing="125%"><tspan
         sodipodi:role="line"
         id="tspan4159"
         x="333.37589"
         y="985.31384"
         style="text-align:center;letter-spacing:-1px;text-anchor:middle">COMBAT ESCRIMA</tspan><tspan
         sodipodi:role="line"
         x="333.37589"
         y="1034.4501"
         style="text-align:center;letter-spacing:-1px;text-anchor:middle"
         id="tspan4193">GRAZ</tspan></text>
  </g>
</svg>
