<?xml version="1.0" encoding="UTF-8" standalone="no"?>
<!-- Created with Inkscape (http://www.inkscape.org/) -->

<svg
   xmlns:dc="http://purl.org/dc/elements/1.1/"
   xmlns:cc="http://creativecommons.org/ns#"
   xmlns:rdf="http://www.w3.org/1999/02/22-rdf-syntax-ns#"
   xmlns:svg="http://www.w3.org/2000/svg"
   xmlns="http://www.w3.org/2000/svg"
   xmlns:sodipodi="http://sodipodi.sourceforge.net/DTD/sodipodi-0.dtd"
   xmlns:inkscape="http://www.inkscape.org/namespaces/inkscape"
   width="50mm"
   height="50mm"
   viewBox="0 0 177.16535 177.16535"
   id="svg4406"
   version="1.1"
   inkscape:version="0.91 r13725"
   sodipodi:docname="team.svg"
   inkscape:export-filename="C:\Users\pidi\Desktop\WebPageTagger2.0\WebPageTagger2.0\icon\team2.png"
   inkscape:export-xdpi="51.571388"
   inkscape:export-ydpi="51.571388">
  <defs
     id="defs4408" />
  <sodipodi:namedview
     id="base"
     pagecolor="#ffffff"
     bordercolor="#666666"
     borderopacity="1.0"
     inkscape:pageopacity="0.0"
     inkscape:pageshadow="2"
     inkscape:zoom="1.979899"
     inkscape:cx="77.140034"
     inkscape:cy="162.21897"
     inkscape:document-units="px"
     inkscape:current-layer="layer1"
     showgrid="false"
     inkscape:window-width="1600"
     inkscape:window-height="838"
     inkscape:window-x="-8"
     inkscape:window-y="-8"
     inkscape:window-maximized="1" />
  <metadata
     id="metadata4411">
    <rdf:RDF>
      <cc:Work
         rdf:about="">
        <dc:format>image/svg+xml</dc:format>
        <dc:type
           rdf:resource="http://purl.org/dc/dcmitype/StillImage" />
        <dc:title />
      </cc:Work>
    </rdf:RDF>
  </metadata>
  <g
     inkscape:label="Ebene 1"
     inkscape:groupmode="layer"
     id="layer1"
     transform="translate(0,-875.19688)">
    <path
       inkscape:connector-curvature="0"
       id="path6237-2"
       style="fill:none;stroke:#1a1a1a;stroke-width:1.99999976;stroke-linecap:round;stroke-linejoin:round;stroke-miterlimit:10;stroke-dasharray:none;stroke-opacity:1"
       d="m 82.708012,925.6512 2.513216,0.7174 2.513217,0.3586 1.436127,0 1.436119,-0.3586 1.436128,-0.3586 1.436118,-0.3588 2.513227,-1.4346 1.795144,-2.1519 1.79516,-1.79339 1.077092,-2.5107 0.71806,-2.5105 0.35904,-2.51069 -0.35904,-1.43451 0,-1.43469 -0.35903,-1.4346 -0.71807,-1.0761 -1.436112,-2.5105 -1.795156,-2.1521 -2.154186,-1.7931 -2.154188,-1.07609 -2.513216,-0.7173 -3.949336,0 -1.436127,0.3587 -1.43612,0.3586 -1.436127,0.3587 -2.154185,1.43459 -2.154184,1.7933 -1.79516,2.152 -1.077093,2.1519 -0.718061,2.5106 -0.359031,2.86929 0.359031,1.076 0,1.4346 0.359031,1.4347 0.718062,1.4347 1.43613,2.5106 1.795152,2.1518 2.154185,1.43479 2.154183,1.0759" />
    <path
       inkscape:connector-curvature="0"
       id="path6239-6"
       style="fill:none;stroke:#1a1a1a;stroke-width:1.99999976;stroke-linecap:round;stroke-linejoin:round;stroke-miterlimit:10;stroke-dasharray:none;stroke-opacity:1"
       d="m 110.35339,976.58096 -0.35903,1.0759 -0.71806,1.076 -1.43613,0.71729 -1.07709,0.3588 -2.51321,0 -1.0771,0.7172 -1.07709,1.4347 -0.35902,1.076 -2.154192,42.68035 0,1.076 -0.35903,1.076 -0.718065,1.0759 -0.718065,0.7174 -0.718056,0.7172 -1.077088,0.7174 -1.077098,0.3587 -14.361237,0 -1.077092,-0.3587 -1.077093,-0.7174 -0.718061,-0.7172 -0.718061,-0.7174 -0.718062,-1.0759 -0.359037,-1.076 0,-1.076 -2.154185,-42.68035 -0.359031,-1.076 -1.077093,-1.4347 -1.077092,-0.7172 -2.513215,0 -1.077091,-0.3588 -1.436123,-0.71729 -0.718063,-1.076 -0.359031,-1.0759 -3.59031,-39.45267 -0.35903,-0.7172 0.35903,-1.076 0,-1.43469 0.359031,-1.076 0.718063,-1.0759 1.077093,-1.7934 1.795154,-1.4346 2.154186,-1.076 2.154184,-0.7173 2.513214,-0.3586 3.231278,0 1.43613,0.7172 1.795152,0.7173 1.795155,1.0761 2.513213,0.7173 2.154186,0.3586 2.513217,0.3587 2.513217,-0.3587 2.513216,-0.3586 2.154188,-0.7173 2.154186,-1.0761 1.436121,-0.7173 1.436114,-0.7172 3.231283,0 2.51321,0.3586 1.79516,0.3586 1.79516,0.7173 1.43612,1.0761 1.43613,1.4346 1.07709,1.4347 0.71806,1.79329 0.35903,1.7933 0,1.7932 -3.94934,39.45267" />
    <path
       inkscape:connector-curvature="0"
       id="path6241-3"
       style="fill:none;stroke:#1a1a1a;stroke-width:1.99999976;stroke-linecap:round;stroke-linejoin:round;stroke-miterlimit:10;stroke-dasharray:none;stroke-opacity:1"
       d="m 69.064838,1012.4468 -0.718061,1.0758 -1.077093,0.7175 -1.077091,0.7173 -11.848021,0 -0.718062,-0.3586 -1.077068,-0.3587 -0.718062,-0.3587 -0.359032,-0.7173 -0.718061,-1.076 -0.359032,-0.7173 0,-0.7174 -1.795154,-34.07244 0,-1.076 -0.718063,-1.0759 -1.077092,-0.3588 -1.077092,-0.3586 -1.795156,0 -1.077092,-0.7174 -0.718062,-0.7172 -0.359031,-1.076 -2.872248,-31.56207 0,-0.7173 0.359032,-1.7934 0.359031,-1.7932 1.077092,-1.43469 1.436124,-1.076 1.795154,-1.0759 1.436125,-0.3587 2.154186,-0.3586 2.872246,0 1.077093,0.3586 1.077094,0.7174 1.436099,0.7172 1.436124,0.71739" />
    <path
       inkscape:connector-curvature="0"
       id="path6243-9"
       style="fill:none;stroke:#1a1a1a;stroke-width:1.99999976;stroke-linecap:round;stroke-linejoin:round;stroke-miterlimit:10;stroke-dasharray:none;stroke-opacity:1"
       d="m 71.219022,920.27131 -0.359031,-1.4346 0,-1.4346 -0.71806,-1.4346 -0.718063,-1.4347 -0.718061,-1.076 -1.077091,-1.076 -1.077094,-1.0759 -1.436123,-0.71739 -1.077092,-0.7173 -1.436124,-0.3587 -1.795155,-0.3587 -1.436124,0 -1.436123,0.3587 -1.436124,0.3587 -1.436124,0.3586 -1.436123,1.07609 -1.077068,0.71721 -1.077094,1.07599 -0.718061,1.4347 -0.718062,1.0759 -0.718062,1.7934 -0.359031,1.4346 0,2.8693 0.359031,1.4345 0.35903,1.43479 0.718062,1.4347 1.077093,1.0758 1.077094,1.076 1.077068,1.076 1.436123,0.7173 1.077094,0.7174" />
    <path
       inkscape:connector-curvature="0"
       id="path6245-3"
       style="fill:none;stroke:#1a1a1a;stroke-width:1.99999976;stroke-linecap:round;stroke-linejoin:round;stroke-miterlimit:10;stroke-dasharray:none;stroke-opacity:1"
       d="m 56.139727,930.6725 1.077092,-1.7933 1.077092,-2.152 1.436123,-1.4346 1.795155,-1.4347 1.795155,-1.07599 1.795155,-1.0759 1.795155,-0.7173 1.795153,-0.3587 2.513215,-0.3587" />
    <path
       inkscape:connector-curvature="0"
       id="path6247-4"
       style="fill:none;stroke:#1a1a1a;stroke-width:1.99999976;stroke-linecap:round;stroke-linejoin:round;stroke-miterlimit:10;stroke-dasharray:none;stroke-opacity:1"
       d="m 69.064838,1012.4468 -1.436122,-26.89945 -1.436123,0 -1.436125,-0.7172 -1.795155,-0.7174 -1.077093,-1.0759 -1.077092,-1.4346 -1.077094,-1.4347 -0.35903,-1.43469 -0.359031,-1.79321 -3.590308,-39.45266 0,-3.9452" />
    <path
       inkscape:connector-curvature="0"
       id="path6249-1"
       style="fill:none;stroke:#1a1a1a;stroke-width:1.99999976;stroke-linecap:round;stroke-linejoin:round;stroke-miterlimit:10;stroke-dasharray:none;stroke-opacity:1"
       d="m 43.932698,1000.611 -1.077092,-21.16085 -1.077093,-0.35869 -1.436123,-0.3586 -1.077093,-0.7174 -1.077093,-1.07581 -0.718062,-1.07599 -0.718062,-1.076 -0.359029,-1.076 -0.359033,-1.4346 -2.872245,-31.56217 0,-3.2279" />
    <path
       inkscape:connector-curvature="0"
       id="path6251-1"
       style="fill:none;stroke:#1a1a1a;stroke-width:1.99999976;stroke-linecap:round;stroke-linejoin:round;stroke-miterlimit:10;stroke-dasharray:none;stroke-opacity:1"
       d="m 33.879834,935.33509 0.718062,-1.7933 1.077091,-1.43459 1.077093,-1.076 1.077094,-1.4347 1.436123,-0.7173 1.436123,-0.7174 1.795156,-0.7173 1.436122,0 1.795156,-0.3587 0,-1.0758 -0.359031,-1.4347 -0.359031,-1.076 -0.359032,-1.07609 -0.718062,-1.07581 -1.077092,-0.71739 -1.795154,-1.4347 -1.077093,-0.7172 -1.077094,-0.3588 -3.949338,0 -1.077093,0.3588 -1.077093,0.3586 -1.077093,0.7173 -1.795154,1.79339 -0.718063,0.7173 -0.35903,1.07581 -0.359031,1.43479 -0.359032,1.0759 0,3.5866 0.718063,1.076 0.35903,1.076 0.718063,1.076 1.795154,1.7932 1.077093,0.3587 1.077093,0.71739" />
    <path
       inkscape:connector-curvature="0"
       id="path6253-1"
       style="fill:none;stroke:#1a1a1a;stroke-width:1.99999976;stroke-linecap:round;stroke-linejoin:round;stroke-miterlimit:10;stroke-dasharray:none;stroke-opacity:1"
       d="m 43.932698,1000.611 -0.35903,1.076 -1.077092,0.3587 -0.718063,0.7173 -8.61674,0 -1.436125,-0.3587 -1.436123,-0.7173 -0.718063,-1.076 -0.359031,-1.43458 -1.436123,-27.25816 -0.35903,-0.7172 -0.359032,-0.7174 -0.718062,-0.7172 -1.795155,0 -0.71806,-0.3587 -0.718063,-0.3587 -0.359031,-0.7173 -0.35903,-0.71739 -2.513217,-25.10618 0,-0.3587 0.35903,-1.7932 0.359032,-1.4346 0.718061,-1.0761 1.436124,-1.0759 1.077094,-0.7173 1.436123,-0.3587 1.436122,0 1.077094,-0.3586 1.077093,0.3586 1.077093,0.3587 1.077092,0.3587 2.154187,1.0759" />
    <path
       inkscape:connector-curvature="0"
       id="path6255-4"
       style="fill:none;stroke:#1a1a1a;stroke-width:1.99999976;stroke-linecap:round;stroke-linejoin:round;stroke-miterlimit:10;stroke-dasharray:none;stroke-opacity:1"
       d="m 131.53621,1000.611 0.35903,1.076 1.0771,0.3587 0.71805,0.7173 8.61674,0 1.43613,-0.3587 1.43612,-0.7173 0.71805,-1.076 0.35903,-1.43458 1.43613,-27.25816 0.35902,-0.7172 0.35904,-0.7174 0.71806,-0.7172 1.79517,0 0.71806,-0.3587 0.71805,-0.3587 0.71808,-0.7173 0,-0.71739 2.5132,-25.10618 0,-0.3587 -0.35903,-1.7932 -0.35903,-1.4346 -0.71806,-1.0761 -1.07708,-1.0759 -1.43613,-0.7173 -1.43614,-0.3587 -1.43612,0 -1.07709,-0.3586 -1.07709,0.3586 -1.07709,0.3587 -1.07709,0.3587 -2.15419,1.0759" />
    <path
       inkscape:connector-curvature="0"
       id="path6257-9"
       style="fill:none;stroke:#1a1a1a;stroke-width:1.99999976;stroke-linecap:round;stroke-linejoin:round;stroke-miterlimit:10;stroke-dasharray:none;stroke-opacity:1"
       d="m 129.74105,927.0858 0,-1.0758 0.35903,-1.4347 0.35903,-1.076 0.71806,-1.07609 0.71807,-1.07581 0.71806,-0.71739 1.79516,-1.4347 1.07709,-0.7172 1.0771,-0.3588 3.94933,0 1.07709,0.3588 1.0771,0.3586 1.07709,0.7173 1.79515,1.79339 0.71805,0.7173 0.35904,1.07581 0.71806,1.43479 0,4.6625 -0.35904,1.076 -0.71806,1.076 -0.71805,1.076 -1.79515,1.7932 -1.07709,0.3587 -1.0771,0.71739" />
    <path
       inkscape:connector-curvature="0"
       id="path6259-4"
       style="fill:none;stroke:#1a1a1a;stroke-width:1.99999976;stroke-linecap:round;stroke-linejoin:round;stroke-miterlimit:10;stroke-dasharray:none;stroke-opacity:1"
       d="m 141.58907,935.33509 -0.71806,-1.7933 -1.0771,-1.43459 -1.07709,-1.076 -1.07709,-1.4347 -1.43611,-0.7173 -1.43614,-0.7174 -1.79514,-0.7173 -1.43613,0 -1.79516,-0.3587" />
    <path
       inkscape:connector-curvature="0"
       id="path6261-8"
       style="fill:none;stroke:#1a1a1a;stroke-width:1.99999976;stroke-linecap:round;stroke-linejoin:round;stroke-miterlimit:10;stroke-dasharray:none;stroke-opacity:1"
       d="m 131.53621,1000.611 1.07709,-21.16085 1.07709,-0.35869 1.43613,-0.3586 1.0771,-0.7174 1.07709,-1.07581 0.71805,-1.07599 0.71806,-1.076 0.35903,-1.076 0.35904,-1.4346 2.87224,-31.56217 0,-3.2279" />
    <path
       inkscape:connector-curvature="0"
       id="path6263-7"
       style="fill:none;stroke:#1a1a1a;stroke-width:1.99999976;stroke-linecap:round;stroke-linejoin:round;stroke-miterlimit:10;stroke-dasharray:none;stroke-opacity:1"
       d="m 106.40405,1012.4468 1.43612,-26.89945 1.43613,0 1.79515,-0.7172 1.43613,-0.7174 1.07709,-1.0759 1.07708,-1.4346 1.0771,-1.4347 0.35904,-1.43469 0.35902,-1.79321 3.59031,-39.45266 0,-3.9452" />
    <path
       inkscape:connector-curvature="0"
       id="path6265-8"
       style="fill:none;stroke:#1a1a1a;stroke-width:1.99999976;stroke-linecap:round;stroke-linejoin:round;stroke-miterlimit:10;stroke-dasharray:none;stroke-opacity:1"
       d="m 119.32917,930.6725 -1.07709,-1.7933 -1.0771,-2.152 -1.43613,-1.4346 -1.79515,-1.4347 -1.79515,-1.07599 -1.79516,-1.0759 -1.79516,-0.7173 -1.79515,-0.3587 -2.51321,-0.3587" />
    <path
       inkscape:connector-curvature="0"
       id="path6269-1"
       style="fill:none;stroke:#1a1a1a;stroke-width:1.99999976;stroke-linecap:round;stroke-linejoin:round;stroke-miterlimit:10;stroke-dasharray:none;stroke-opacity:1"
       d="m 106.40405,1012.4468 0.71807,1.0758 1.07709,0.7175 1.07709,0.7173 11.84802,0 0.71805,-0.3586 1.07709,-0.3587 0.71807,-0.3587 0.71806,-0.7173 0.35903,-1.076 0.35903,-0.7173 0,-0.7174 1.79516,-34.07244 0,-1.076 0.71806,-1.0759 1.07709,-0.3588 1.07709,-0.3586 1.79516,0 1.07709,-0.7174 0.71807,-0.7172 0.35902,-1.076 2.87226,-31.56207 0,-2.5107 -0.71807,-1.7932 -1.0771,-1.43469 -1.43611,-1.076 -1.79516,-1.0759 -1.43613,-0.3587 -2.15418,-0.3586 -2.51322,0 -1.43612,0.3586 -1.0771,0.7174 -1.43612,0.7172 -1.43612,0.71739" />
    <path
       inkscape:connector-curvature="0"
       id="path6271-4"
       style="fill:none;stroke:#1a1a1a;stroke-width:1.99999976;stroke-linecap:round;stroke-linejoin:round;stroke-miterlimit:10;stroke-dasharray:none;stroke-opacity:1"
       d="m 19.159567,1014.2401 2.154184,3.2279 2.513218,2.8693 2.872245,3.2279 2.872248,2.5106 2.872247,2.8693 3.231278,2.8693 3.59031,2.5106 3.231279,2.152 3.949339,2.1519 3.59031,2.152 3.949316,1.7933 4.30837,1.7934 3.94934,1.4346 4.308371,1.076 4.308369,1.0758 4.667401,1.0762 4.308375,0.3586 4.308372,0.3587 4.667404,0.3586 4.308365,-0.3586 4.308376,-0.3587 4.308376,-0.3586 4.30836,-0.7175 4.30837,-1.0759 3.94934,-1.0759 4.30837,-1.4346 3.5903,-1.4348 3.94935,-1.7932 3.5903,-1.7933 3.23129,-1.7934 3.59031,-2.1519 3.23126,-2.1521 2.87226,-2.5105 2.87224,-2.5107 3.23127,-2.5106 2.87226,-2.8693 2.51321,-3.2278 2.87224,-3.228 2.51323,-3.2281 2.15419,-3.5864 2.15418,-3.5866 2.15418,-3.9453 1.79515,-3.94524 1.79517,-3.94512 1.43611,-4.30399 1.43612,-4.3039 0.71805,-4.3038 1.07709,-4.30399 0.35902,-4.304 0.35904,-4.6625 0.35903,-4.30389 -0.35903,-4.304 0,-4.66259 -0.71806,-4.3039 -0.71807,-4.3038 -1.07707,-3.94539 -1.07709,-4.3039 -1.43612,-3.94529 -1.43612,-3.9452 -1.79516,-3.5866 -1.79515,-3.58669 -1.79517,-3.5865 -2.15417,-3.228 -2.15419,-3.2279 -2.51321,-2.86929 -2.51321,-3.2278 -2.51323,-2.8694 -2.87225,-2.86929 -2.87224,-2.8693 -3.23128,-2.5105 -3.59031,-2.5106 -3.5903,-2.5107 -3.59031,-2.15189 -3.94934,-1.7934 -3.94934,-2.152 -3.94934,-1.4346 -4.30837,-1.4346 -4.30837,-1.4347 -4.30837,-1.07599 -4.30837,-0.71721 -4.30836,-0.71739 -4.667413,-0.3587 -8.616738,0 -4.667402,0.3587 -4.308374,0.71739 -4.308369,0.71721 -3.949338,1.07599 -4.308372,1.0761 -3.94934,1.0759 -3.949339,1.7933 -3.590285,1.4347 -3.59031,1.7932 -3.59031,2.152 -3.231278,2.15199 -3.231278,2.1519 -2.872246,2.1521 -3.231279,2.5105 -2.872248,2.86929 -2.872247,2.8693 -2.513215,2.8692 -2.872248,3.228 -2.513217,3.58659 -2.154185,3.228 -2.513217,3.94529 -1.795155,3.5866 -2.1541848,3.9452 -1.4361242,4.3038 -1.4361233,3.94529 -1.4361237,4.304 -1.0770929,4.30389 -0.7180618,4.6626 -0.7180617,4.30399 -0.359031,4.3038 0,8.96649 0.359031,4.304 0.7180617,4.3039 0.7180618,4.30379 1.0770929,4.304 1.0770926,3.94529 1.4361238,3.9451 1.4361232,3.9453 1.4361244,3.94516 2.154186,3.5866 1.795154,3.2279 2.154184,3.5867 2.154188,2.8693" />
    <path
       inkscape:connector-curvature="0"
       id="path6391-6"
       style="fill:none;stroke:#1a1a1a;stroke-width:1.99999976;stroke-linecap:round;stroke-linejoin:round;stroke-miterlimit:10;stroke-dasharray:none;stroke-opacity:1"
       d="m 104.24987,920.27131 0.35903,-1.4346 0,-1.4346 0.71805,-1.4346 0.71807,-1.4347 0.71806,-1.076 1.07709,-1.076 1.07709,-1.0759 1.43613,-0.71739 1.07709,-0.7173 1.43614,-0.3587 1.79513,-0.3587 1.43614,0 1.43611,0.3587 1.43613,0.3587 1.43613,0.3586 1.43611,1.07609 1.07709,0.71721 1.0771,1.07599 0.71806,1.4347 0.71806,1.0759 0.71807,1.7934 0.35903,1.4346 0,2.8693 -0.35903,1.4345 -0.35904,1.43479 -0.71806,1.4347 -1.07709,1.0758 -1.0771,1.076 -1.07709,1.076 -1.43611,0.7173 -1.07709,0.7174" />
  </g>
</svg>
